<svg width="36" height="36" viewBox="0 0 36 36" fill="none" xmlns="http://www.w3.org/2000/svg">
<path d="M33 0H3C1.34315 0 0 1.34315 0 3V33C0 34.6569 1.34315 36 3 36H33C34.6569 36 36 34.6569 36 33V3C36 1.34315 34.6569 0 33 0Z" fill="#263238"/>
<path d="M25.8867 21.3651H12.3042C12.1233 21.3671 11.9478 21.3037 11.81 21.1866C11.6722 21.0694 11.5813 20.9064 11.5542 20.7276L10.0542 11.1651C10.0412 11.0569 10.0519 10.9472 10.0856 10.8435C10.1192 10.7399 10.1751 10.6449 10.2492 10.5651C10.3196 10.4827 10.407 10.4166 10.5054 10.3713C10.6038 10.326 10.7109 10.3025 10.8192 10.3026H27.3867C27.495 10.3025 27.6021 10.326 27.7005 10.3713C27.7989 10.4166 27.8863 10.4827 27.9567 10.5651C28.0269 10.6468 28.0786 10.7427 28.1084 10.8462C28.1381 10.9498 28.1452 11.0585 28.1292 11.1651L26.6292 20.7501C26.5975 20.9235 26.5057 21.0802 26.3699 21.1927C26.2341 21.3051 26.063 21.3662 25.8867 21.3651ZM12.9492 19.8651H25.2492L26.5092 11.8026H11.6817L12.9492 19.8651Z" fill="white"/>
<path d="M24.8669 23.4124H12.3044C12.1055 23.4124 11.9147 23.3334 11.7741 23.1928C11.6334 23.0521 11.5544 22.8614 11.5544 22.6624V20.6749L10.0544 11.3074L8.9444 9.31994L7.9169 9.04244C7.73098 8.98545 7.57446 8.85847 7.48037 8.68829C7.38627 8.51811 7.36196 8.31803 7.41254 8.13027C7.46313 7.9425 7.58468 7.78173 7.75153 7.68185C7.91838 7.58198 8.11751 7.55082 8.3069 7.59494L9.6344 7.95494C9.7302 7.98055 9.8199 8.02488 9.8984 8.08539C9.977 8.14589 10.0427 8.22137 10.0919 8.30744L11.4569 10.6774C11.5021 10.7563 11.5326 10.8427 11.5469 10.9324L13.0469 20.4949C13.0506 20.5349 13.0506 20.575 13.0469 20.6149V21.9124H24.8669C25.0658 21.9124 25.2566 21.9915 25.3972 22.1321C25.5379 22.2728 25.6169 22.4635 25.6169 22.6624C25.6169 22.8614 25.5379 23.0521 25.3972 23.1928C25.2566 23.3334 25.0658 23.4124 24.8669 23.4124ZM13.9994 27.9349C13.6001 27.9364 13.2093 27.8194 12.8765 27.5986C12.5437 27.3778 12.284 27.0632 12.1301 26.6947C11.9763 26.3262 11.9353 25.9203 12.0123 25.5285C12.0892 25.1366 12.2808 24.7764 12.5627 24.4935C12.8445 24.2106 13.204 24.0177 13.5955 23.9393C13.9871 23.8608 14.3931 23.9003 14.7622 24.0528C15.1313 24.2053 15.4468 24.4639 15.6689 24.7958C15.8909 25.1277 16.0094 25.5181 16.0094 25.9174C16.0094 26.4512 15.7979 26.9632 15.4211 27.3414C15.0444 27.7195 14.5332 27.933 13.9994 27.9349ZM13.9994 25.3999C13.8621 25.3999 13.7305 25.4545 13.6335 25.5515C13.5364 25.6486 13.4819 25.7802 13.4819 25.9174C13.4819 26.0547 13.5364 26.1863 13.6335 26.2834C13.7305 26.3804 13.8621 26.4349 13.9994 26.4349C14.1366 26.4349 14.2683 26.3804 14.3653 26.2834C14.4624 26.1863 14.5169 26.0547 14.5169 25.9174C14.5169 25.7802 14.4624 25.6486 14.3653 25.5515C14.2683 25.4545 14.1366 25.3999 13.9994 25.3999ZM22.9394 27.9349C22.5404 27.9349 22.1503 27.8166 21.8185 27.5949C21.4868 27.3732 21.2282 27.0582 21.0755 26.6895C20.9228 26.3209 20.8828 25.9152 20.9607 25.5238C21.0385 25.1325 21.2307 24.773 21.5128 24.4909C21.795 24.2087 22.1544 24.0166 22.5458 23.9387C22.9372 23.8609 23.3428 23.9008 23.7115 24.0535C24.0801 24.2062 24.3952 24.4648 24.6169 24.7966C24.8386 25.1284 24.9569 25.5184 24.9569 25.9174C24.9549 26.4519 24.7417 26.9639 24.3638 27.3418C23.9859 27.7198 23.4739 27.933 22.9394 27.9349ZM22.9394 25.3999C22.837 25.3999 22.737 25.4303 22.6519 25.4872C22.5668 25.544 22.5005 25.6248 22.4613 25.7194C22.4221 25.814 22.4119 25.918 22.4318 26.0184C22.4518 26.1188 22.5011 26.211 22.5735 26.2834C22.6458 26.3557 22.7381 26.405 22.8384 26.425C22.9388 26.445 23.0429 26.4347 23.1374 26.3955C23.232 26.3564 23.3128 26.2901 23.3697 26.205C23.4265 26.1198 23.4569 26.0198 23.4569 25.9174C23.4569 25.8495 23.4435 25.7822 23.4175 25.7194C23.3915 25.6566 23.3534 25.5996 23.3053 25.5515C23.2573 25.5035 23.2002 25.4653 23.1374 25.4393C23.0746 25.4133 23.0074 25.3999 22.9394 25.3999Z" fill="white"/>
</svg>
