<svg width="36" height="36" viewBox="0 0 36 36" fill="none" xmlns="http://www.w3.org/2000/svg">
<path d="M33 0H3C1.34315 0 0 1.34315 0 3V33C0 34.6569 1.34315 36 3 36H33C34.6569 36 36 34.6569 36 33V3C36 1.34315 34.6569 0 33 0Z" fill="#263238"/>
<path d="M9.7918 11.25C9.7239 11.2534 9.658 11.2738 9.6001 11.3093C9.5422 11.3447 9.49413 11.3942 9.46025 11.4531L5.61713 18.1359C5.59038 18.1822 5.57301 18.2333 5.56601 18.2864C5.55901 18.3394 5.56251 18.3933 5.57632 18.445C5.59013 18.4967 5.61397 18.5452 5.64649 18.5876C5.679 18.6301 5.71955 18.6657 5.76582 18.6925L8.26182 20.1396C8.35509 20.1933 8.4658 20.2079 8.56967 20.18C8.67355 20.1521 8.76211 20.0841 8.81594 19.9909L9.7381 18.3862L10.4247 18.7843L11.1771 19.2198C11.1788 20.1731 11.557 21.0871 12.2293 21.7629C12.1304 21.9489 12.08 22.1569 12.0829 22.3675C12.0857 22.5781 12.1417 22.7846 12.2455 22.9679C12.4893 23.3928 12.9516 23.5261 13.4131 23.4944C13.3993 23.73 13.3773 23.9713 13.5024 24.1883C13.8258 24.7513 14.5311 24.9317 15.1079 24.6595C15.1242 24.8326 15.0811 25.0081 15.1729 25.1673C15.5142 25.7604 16.2861 25.9693 16.8776 25.6256L17.7534 25.1178L18.6212 25.6215C18.9083 25.7859 19.2488 25.8299 19.5683 25.7438C19.8877 25.6578 20.1601 25.4488 20.3258 25.1624C20.4176 25.0032 20.3746 24.8277 20.3908 24.6546C20.9677 24.9268 21.6729 24.7464 21.9971 24.1834C22.1214 23.9664 22.0995 23.7251 22.0857 23.4895C22.5472 23.522 23.0095 23.3888 23.2533 22.963C23.4986 22.5373 23.3833 22.0693 23.1233 21.6841C23.3337 21.5785 23.5523 21.4769 23.6774 21.26H23.679C23.6961 21.2299 23.7058 21.1974 23.7196 21.1666C23.7729 21.1324 23.8174 21.0862 23.8496 21.0317C24.1706 20.4792 24.3371 19.8495 24.3371 19.2101L24.6581 19.024L25.0741 18.7827L25.4893 18.5438L25.7623 18.3846L26.6828 19.9876C26.7095 20.0342 26.7451 20.0749 26.7876 20.1076C26.8301 20.1403 26.8787 20.1643 26.9305 20.1781C26.9823 20.1919 27.0364 20.1953 27.0895 20.1882C27.1427 20.181 27.1939 20.1634 27.2402 20.1363L29.7346 18.6925C29.8276 18.6388 29.8955 18.5504 29.9235 18.4467C29.9515 18.343 29.9374 18.2325 29.8841 18.1392L26.0418 11.4548C26.0044 11.3898 25.9498 11.3364 25.8839 11.3006C25.8181 11.2647 25.7437 11.2478 25.6688 11.2516C25.6043 11.2541 25.5414 11.272 25.4852 11.3036L22.9908 12.7515C22.8981 12.8055 22.8305 12.894 22.8028 12.9977C22.7751 13.1013 22.7895 13.2118 22.8429 13.3048L22.9551 13.5014L22.6804 13.6607L22.2653 13.9004L21.8493 14.1417L21.5178 14.3334C20.8431 13.9435 20.0605 13.7822 19.2866 13.8736C18.807 13.9319 18.3442 14.0873 17.9265 14.3302H17.9249L17.7543 14.4285L17.5641 14.3253C17.1412 14.0942 16.6778 13.9466 16.1991 13.8906C15.4281 13.8013 14.6546 13.9638 13.9859 14.3399L13.2335 13.9053L12.5429 13.5047L12.6574 13.3064C12.7109 13.2131 12.7253 13.1023 12.6975 12.9983C12.6696 12.8943 12.6017 12.8056 12.5088 12.7515L10.0144 11.3036C9.9468 11.2648 9.8695 11.2461 9.7918 11.25ZM9.9599 12.2136L11.7531 13.2528L8.31625 19.2304L6.52307 18.1912L9.9599 12.2136ZM25.5404 12.2136L28.9773 18.1928L27.1841 19.2304L23.7473 13.2528L25.5404 12.2136ZM23.3597 14.2043L25.356 17.6801L25.083 17.8386L24.6678 18.0799H24.6662L24.2502 18.3236L24.2315 18.3342C24.1533 18.0238 24.0347 17.725 23.8789 17.4453C23.871 17.4251 23.8615 17.4055 23.8504 17.3868V17.3852L22.8649 15.6708V15.6692C22.6922 15.3707 22.478 15.0982 22.2287 14.8599L22.2571 14.8437L22.6731 14.6032L23.0883 14.3619L23.3597 14.2043ZM12.1391 14.2099L12.8256 14.6064L13.2684 14.8632C13.0201 15.1003 12.807 15.3717 12.6355 15.6692L11.6499 17.3852C11.4828 17.6857 11.3594 18.0086 11.2835 18.3439L10.8326 18.0815L10.1419 17.6818L12.1391 14.2099ZM19.9309 14.6617C20.6459 14.7129 21.3317 15.0436 21.8273 15.6091C21.95 15.7496 22.0629 15.9048 22.1604 16.0738V16.0754L23.146 17.7898V17.7914C23.1471 17.7931 23.1493 17.7963 23.1493 17.7963C23.4885 18.3873 23.6022 19.0812 23.4694 19.7496C23.3957 19.6735 23.3124 19.6074 23.2216 19.5529L19.8976 17.6249C19.9178 17.3767 19.8688 17.1279 19.7563 16.9058C19.7491 16.884 19.7402 16.8628 19.7294 16.8424C19.7279 16.8392 19.7262 16.8359 19.7246 16.8327C19.723 16.8294 19.7214 16.8262 19.7197 16.8229V16.8213C19.6276 16.6613 19.5031 16.5224 19.3541 16.4134C19.1307 16.2536 18.865 16.1618 18.5906 16.1493C18.3162 16.1367 18.0441 16.2039 17.8071 16.3428C17.8016 16.3456 17.7962 16.3486 17.7908 16.3517L17.7689 16.3663L15.9538 17.4169C15.933 17.4295 15.9134 17.4439 15.8953 17.4599L15.8506 17.4843C15.4419 17.7216 14.9576 17.5631 14.5733 17.2162L15.6556 16.5865L16.7809 15.9349C16.7844 15.9328 16.788 15.9306 16.7914 15.9284L16.7947 15.9268L17.9728 15.2443L18.3344 15.033H18.336C18.8182 14.7516 19.374 14.6222 19.9309 14.6617ZM15.5638 14.6763C16.0249 14.651 16.4854 14.7353 16.9076 14.9225L16.3876 15.2231L15.2477 15.8837H15.2461L13.6877 16.7937C13.5952 16.8477 13.5277 16.936 13.5001 17.0395C13.4724 17.143 13.4866 17.2532 13.5398 17.3462C14.1037 18.3277 15.3168 18.7356 16.2568 18.1896L18.0768 17.1341C18.0823 17.1307 18.0877 17.1272 18.0931 17.1236L18.1881 17.0626L18.2149 17.0464C18.505 16.879 18.8243 16.9586 18.9868 17.1959C18.9029 17.2072 18.8246 17.2445 18.7629 17.3025C18.7012 17.3605 18.6591 17.4364 18.6427 17.5195C18.6262 17.6026 18.6361 17.6887 18.671 17.7659C18.7059 17.8431 18.7641 17.9074 18.8373 17.9499L19.2029 18.1611C19.2281 18.1799 19.2554 18.1957 19.2842 18.2083L22.8137 20.2558C23.029 20.3801 23.0981 20.6393 22.9746 20.8554C22.9473 20.9059 22.91 20.9503 22.8649 20.9858C22.8199 21.0214 22.7681 21.0475 22.7127 21.0624C22.6572 21.0773 22.5993 21.0807 22.5425 21.0725C22.4857 21.0643 22.4312 21.0446 22.3823 21.0146L18.4311 18.7242L18.0151 18.4829C17.9218 18.4288 17.8108 18.414 17.7066 18.4417C17.6023 18.4695 17.5134 18.5375 17.4593 18.6308C17.4052 18.7241 17.3904 18.835 17.4182 18.9393C17.4459 19.0435 17.5139 19.1324 17.6072 19.1865L18.0232 19.427L21.9744 21.7174L22.3904 21.9588C22.441 21.9869 22.4853 22.025 22.5208 22.0708C22.5563 22.1165 22.5823 22.1689 22.5971 22.2249C22.6119 22.2809 22.6152 22.3393 22.6069 22.3966C22.5986 22.4539 22.5789 22.5089 22.5488 22.5584C22.5216 22.6089 22.4844 22.6532 22.4394 22.6888C22.3944 22.7244 22.3426 22.7504 22.2872 22.7652C22.2319 22.78 22.174 22.7834 22.1173 22.7751C22.0606 22.7668 22.0061 22.7469 21.9573 22.7168L21.5413 22.4755L17.5901 20.1843L17.1741 19.9429C17.128 19.9162 17.077 19.8987 17.0241 19.8917C16.9712 19.8846 16.9175 19.888 16.8659 19.9017C16.8143 19.9154 16.766 19.9391 16.7236 19.9715C16.6812 20.0039 16.6456 20.0443 16.6188 20.0904C16.592 20.1366 16.5746 20.1875 16.5675 20.2404C16.5604 20.2933 16.5638 20.3471 16.5775 20.3986C16.5912 20.4502 16.6149 20.4986 16.6473 20.541C16.6797 20.5834 16.7201 20.619 16.7663 20.6458L17.1823 20.8871L17.4236 21.0268L21.1334 23.1791C21.1839 23.2072 21.2283 23.2451 21.2638 23.2907C21.2993 23.3362 21.3253 23.3884 21.3403 23.4442C21.3552 23.5 21.3587 23.5582 21.3507 23.6154C21.3427 23.6726 21.3232 23.7276 21.2935 23.7771H21.2919C21.2647 23.8277 21.2275 23.8721 21.1826 23.9078C21.1377 23.9434 21.086 23.9696 21.0306 23.9845C20.9752 23.9995 20.9174 24.003 20.8606 23.9949C20.8038 23.9868 20.7493 23.9671 20.7004 23.9372L19.8684 23.4546L16.334 21.4046L15.5012 20.922C15.4079 20.869 15.2975 20.855 15.194 20.8831C15.0904 20.9112 15.0022 20.9791 14.9486 21.072C14.8949 21.1649 14.8802 21.2753 14.9076 21.379C14.9351 21.4827 15.0024 21.5714 15.0949 21.6256L19.4605 24.1582C19.6758 24.2825 19.7449 24.5401 19.6214 24.7562C19.5942 24.8068 19.557 24.8514 19.512 24.8871C19.467 24.9229 19.4152 24.949 19.3598 24.964C19.3043 24.979 19.2463 24.9825 19.1895 24.9743C19.1326 24.9661 19.078 24.9463 19.0291 24.9163L14.9146 22.5316H14.9097L14.6619 22.3869C14.6597 22.3869 14.6575 22.3869 14.6554 22.3869L13.37 21.6411C13.2847 21.5915 13.214 21.5273 13.1352 21.4713C13.081 21.3865 12.9974 21.3248 12.9004 21.2982C12.4194 20.8657 12.1023 20.2805 12.0025 19.6414C11.9028 19.0023 12.0265 18.3484 12.3528 17.7898L13.3399 16.0746C13.5653 15.6752 13.8866 15.3382 14.2749 15.094C14.6631 14.8499 15.1061 14.7064 15.5638 14.6763ZM7.94819 17.3275C7.86196 17.3254 7.77676 17.3468 7.70156 17.3892C7.62636 17.4317 7.56392 17.4937 7.52082 17.5688C7.45755 17.6796 7.44058 17.8111 7.47363 17.9345C7.50668 18.0579 7.58705 18.163 7.69713 18.2269C7.80726 18.291 7.93816 18.3084 8.06109 18.2755C8.18403 18.2426 8.28895 18.162 8.35282 18.0514C8.41608 17.9406 8.43305 17.8091 8.4 17.6858C8.36695 17.5624 8.28658 17.4572 8.1765 17.3933C8.10701 17.3528 8.02851 17.3297 7.94819 17.3275ZM27.5522 17.3275C27.4713 17.3294 27.3922 17.3517 27.3223 17.3925C27.2122 17.4567 27.1321 17.5621 27.0993 17.6857C27.0665 17.8092 27.0839 17.9408 27.1476 18.0514C27.2113 18.1622 27.3162 18.2429 27.4391 18.276C27.5621 18.3091 27.693 18.2917 27.8033 18.2278C27.9133 18.1639 27.9937 18.0587 28.0268 17.9353C28.0598 17.812 28.0428 17.6805 27.9796 17.5696C27.9366 17.4944 27.8742 17.4322 27.799 17.3896C27.7238 17.347 27.6385 17.3255 27.5522 17.3275ZM12.8955 22.2968C12.9199 22.3106 12.9386 22.3301 12.9621 22.3439L13.5829 22.703C13.5689 22.7095 13.5554 22.7169 13.5423 22.7249C13.4933 22.7553 13.4386 22.7752 13.3817 22.7836C13.3247 22.7919 13.2666 22.7885 13.211 22.7735C13.1554 22.7585 13.1035 22.7322 13.0584 22.6963C13.0134 22.6605 12.9762 22.6157 12.9491 22.5649C12.903 22.4836 12.8842 22.3896 12.8955 22.2968ZM14.3938 23.1694L14.5018 23.2328H14.5034L15.2648 23.6739L14.7968 23.9453C14.7478 23.9751 14.6933 23.9947 14.6365 24.0028C14.5798 24.0108 14.522 24.0073 14.4666 23.9923C14.4113 23.9773 14.3596 23.9513 14.3147 23.9157C14.2697 23.8801 14.2325 23.8357 14.2053 23.7853C14.1754 23.7357 14.1558 23.6806 14.1477 23.6234C14.1396 23.5661 14.1432 23.5078 14.1581 23.4519C14.173 23.396 14.1991 23.3437 14.2347 23.2981C14.2703 23.2525 14.3147 23.2145 14.3653 23.1864C14.375 23.1812 14.3845 23.1755 14.3938 23.1694ZM16.0732 24.1419L16.9426 24.6481L16.4697 24.9228C16.4207 24.9527 16.3661 24.9724 16.3093 24.9805C16.2524 24.9887 16.1945 24.9851 16.1391 24.9702C16.0837 24.9552 16.0319 24.9291 15.9869 24.8934C15.9419 24.8577 15.9046 24.8132 15.8774 24.7627C15.8474 24.7133 15.8277 24.6583 15.8195 24.6011C15.8113 24.5439 15.8147 24.4856 15.8296 24.4298C15.8445 24.3739 15.8705 24.3216 15.9061 24.2761C15.9416 24.2305 15.986 24.1927 16.0366 24.1647C16.0492 24.1578 16.0614 24.1502 16.0732 24.1419Z" fill="white"/>
</svg>
