<svg width="37" height="36" viewBox="0 0 37 36" fill="none" xmlns="http://www.w3.org/2000/svg">
<rect x="0.5" width="36" height="36" rx="3" fill="#263238"/>
<g clip-path="url(#clip0_40_2)">
<path d="M11.53 9.10998H8.65002V29.27H24.97V26.39H27.85V6.22998H11.53V9.10998ZM24.01 28.31H9.61002V10.07H20.65V13.43H24.01V28.31ZM21.61 10.7487L23.3313 12.47H21.61V10.7487ZM12.49 7.18998H26.89V25.43H24.97V12.7513L21.3287 9.10998H12.49V7.18998Z" fill="white"/>
<path d="M16.81 12.47H11.05V18.23H16.81V12.47ZM15.85 17.27H12.01V13.43H15.85V17.27ZM18.25 14.87H22.57V15.83H18.25V14.87ZM18.25 17.27H22.57V18.23H18.25V17.27ZM11.05 19.67H18.25V20.63H11.05V19.67ZM19.69 19.67H22.57V20.63H19.69V19.67ZM11.05 22.07H13.93V23.03H11.05V22.07ZM15.37 22.07H22.57V23.03H15.37V22.07ZM11.05 24.47H17.77V25.43H11.05V24.47ZM19.21 24.47H22.57V25.43H19.21V24.47Z" fill="white"/>
</g>
<defs>
<clipPath id="clip0_40_2">
<rect width="24" height="24" fill="white" transform="translate(6.25 5.75)"/>
</clipPath>
</defs>
</svg>
