<svg width="37" height="36" viewBox="0 0 37 36" fill="none" xmlns="http://www.w3.org/2000/svg">
<rect x="0.5" width="36" height="36" rx="3" fill="#E6DCFF"/>
<path d="M26.3867 21.3651H12.8042C12.6233 21.3671 12.4478 21.3037 12.31 21.1866C12.1722 21.0694 12.0813 20.9064 12.0542 20.7276L10.5542 11.1651C10.5412 11.0569 10.5519 10.9472 10.5856 10.8435C10.6192 10.7399 10.6751 10.6449 10.7492 10.5651C10.8196 10.4827 10.907 10.4166 11.0054 10.3713C11.1038 10.326 11.2109 10.3025 11.3192 10.3026H27.8867C27.995 10.3025 28.1021 10.326 28.2005 10.3713C28.2989 10.4166 28.3863 10.4827 28.4567 10.5651C28.5269 10.6468 28.5786 10.7427 28.6084 10.8462C28.6381 10.9498 28.6452 11.0585 28.6292 11.1651L27.1292 20.7501C27.0975 20.9235 27.0057 21.0802 26.8699 21.1927C26.7341 21.3051 26.563 21.3662 26.3867 21.3651ZM13.4492 19.8651H25.7492L27.0092 11.8026H12.1817L13.4492 19.8651Z" fill="#9F7EEE"/>
<path d="M25.3669 23.4124H12.8044C12.6055 23.4124 12.4147 23.3334 12.2741 23.1928C12.1334 23.0521 12.0544 22.8614 12.0544 22.6624V20.6749L10.5544 11.3074L9.4444 9.31994L8.4169 9.04244C8.23098 8.98545 8.07446 8.85847 7.98037 8.68829C7.88627 8.51811 7.86196 8.31803 7.91254 8.13027C7.96313 7.9425 8.08468 7.78173 8.25153 7.68185C8.41838 7.58198 8.61751 7.55082 8.8069 7.59494L10.1344 7.95494C10.2302 7.98055 10.3199 8.02488 10.3984 8.08539C10.477 8.14589 10.5427 8.22137 10.5919 8.30744L11.9569 10.6774C12.0021 10.7563 12.0326 10.8427 12.0469 10.9324L13.5469 20.4949C13.5506 20.5349 13.5506 20.575 13.5469 20.6149V21.9124H25.3669C25.5658 21.9124 25.7566 21.9915 25.8972 22.1321C26.0379 22.2728 26.1169 22.4635 26.1169 22.6624C26.1169 22.8614 26.0379 23.0521 25.8972 23.1928C25.7566 23.3334 25.5658 23.4124 25.3669 23.4124ZM14.4994 27.9349C14.1001 27.9364 13.7093 27.8194 13.3765 27.5986C13.0437 27.3778 12.784 27.0632 12.6301 26.6947C12.4763 26.3262 12.4353 25.9203 12.5123 25.5285C12.5892 25.1366 12.7808 24.7764 13.0627 24.4935C13.3445 24.2106 13.704 24.0177 14.0955 23.9393C14.4871 23.8608 14.8931 23.9003 15.2622 24.0528C15.6313 24.2053 15.9468 24.4639 16.1689 24.7958C16.3909 25.1277 16.5094 25.5181 16.5094 25.9174C16.5094 26.4512 16.2979 26.9632 15.9211 27.3414C15.5444 27.7195 15.0332 27.933 14.4994 27.9349ZM14.4994 25.3999C14.3621 25.3999 14.2305 25.4545 14.1335 25.5515C14.0364 25.6486 13.9819 25.7802 13.9819 25.9174C13.9819 26.0547 14.0364 26.1863 14.1335 26.2834C14.2305 26.3804 14.3621 26.4349 14.4994 26.4349C14.6366 26.4349 14.7683 26.3804 14.8653 26.2834C14.9624 26.1863 15.0169 26.0547 15.0169 25.9174C15.0169 25.7802 14.9624 25.6486 14.8653 25.5515C14.7683 25.4545 14.6366 25.3999 14.4994 25.3999ZM23.4394 27.9349C23.0404 27.9349 22.6503 27.8166 22.3185 27.5949C21.9868 27.3732 21.7282 27.0582 21.5755 26.6895C21.4228 26.3209 21.3828 25.9152 21.4607 25.5238C21.5385 25.1325 21.7307 24.773 22.0128 24.4909C22.295 24.2087 22.6544 24.0166 23.0458 23.9387C23.4372 23.8609 23.8428 23.9008 24.2115 24.0535C24.5801 24.2062 24.8952 24.4648 25.1169 24.7966C25.3386 25.1284 25.4569 25.5184 25.4569 25.9174C25.4549 26.4519 25.2417 26.9639 24.8638 27.3418C24.4859 27.7198 23.9739 27.933 23.4394 27.9349ZM23.4394 25.3999C23.337 25.3999 23.237 25.4303 23.1519 25.4872C23.0668 25.544 23.0005 25.6248 22.9613 25.7194C22.9221 25.814 22.9119 25.918 22.9318 26.0184C22.9518 26.1188 23.0011 26.211 23.0735 26.2834C23.1458 26.3557 23.2381 26.405 23.3384 26.425C23.4388 26.445 23.5429 26.4347 23.6374 26.3955C23.732 26.3564 23.8128 26.2901 23.8697 26.205C23.9265 26.1198 23.9569 26.0198 23.9569 25.9174C23.9569 25.8495 23.9435 25.7822 23.9175 25.7194C23.8915 25.6566 23.8534 25.5996 23.8053 25.5515C23.7573 25.5035 23.7002 25.4653 23.6374 25.4393C23.5746 25.4133 23.5074 25.3999 23.4394 25.3999Z" fill="#9F7EEE"/>
</svg>
