<svg width="37" height="36" viewBox="0 0 37 36" fill="none" xmlns="http://www.w3.org/2000/svg">
<rect x="0.5" width="36" height="36" rx="3" fill="#E6DCFF"/>
<path d="M10.2918 11.25C10.2239 11.2534 10.158 11.2738 10.1001 11.3093C10.0422 11.3447 9.99413 11.3942 9.96025 11.4531L6.11713 18.1359C6.09038 18.1822 6.07301 18.2333 6.06601 18.2864C6.05901 18.3394 6.06251 18.3933 6.07632 18.445C6.09013 18.4967 6.11397 18.5452 6.14649 18.5876C6.179 18.6301 6.21955 18.6657 6.26582 18.6925L8.76182 20.1396C8.85509 20.1933 8.9658 20.2079 9.06967 20.18C9.17355 20.1521 9.26211 20.0841 9.31594 19.9909L10.2381 18.3862L10.9247 18.7843L11.6771 19.2198C11.6788 20.1731 12.057 21.0871 12.7293 21.7629C12.6304 21.9489 12.58 22.1569 12.5829 22.3675C12.5857 22.5781 12.6417 22.7846 12.7455 22.9679C12.9893 23.3928 13.4516 23.5261 13.9131 23.4944C13.8993 23.73 13.8773 23.9713 14.0024 24.1883C14.3258 24.7513 15.0311 24.9317 15.6079 24.6595C15.6242 24.8326 15.5811 25.0081 15.6729 25.1673C16.0142 25.7604 16.7861 25.9693 17.3776 25.6256L18.2534 25.1178L19.1212 25.6215C19.4083 25.7859 19.7488 25.8299 20.0683 25.7438C20.3877 25.6578 20.6601 25.4488 20.8258 25.1624C20.9176 25.0032 20.8746 24.8277 20.8908 24.6546C21.4677 24.9268 22.1729 24.7464 22.4971 24.1834C22.6214 23.9664 22.5995 23.7251 22.5857 23.4895C23.0472 23.522 23.5095 23.3888 23.7533 22.963C23.9986 22.5373 23.8833 22.0693 23.6233 21.6841C23.8337 21.5785 24.0523 21.4769 24.1774 21.26C24.1779 21.26 24.1785 21.26 24.179 21.26C24.1961 21.2299 24.2058 21.1974 24.2196 21.1666C24.2729 21.1324 24.3174 21.0862 24.3496 21.0317C24.6706 20.4792 24.8371 19.8495 24.8371 19.2101L25.1581 19.024L25.5741 18.7827L25.9893 18.5438L26.2623 18.3846L27.1828 19.9876C27.2095 20.0342 27.2451 20.0749 27.2876 20.1076C27.3301 20.1403 27.3787 20.1643 27.4305 20.1781C27.4823 20.1919 27.5364 20.1953 27.5895 20.1882C27.6427 20.181 27.6939 20.1634 27.7402 20.1363L30.2346 18.6925C30.3276 18.6388 30.3955 18.5504 30.4235 18.4467C30.4515 18.343 30.4374 18.2325 30.3841 18.1392L26.5418 11.4548C26.5044 11.3898 26.4498 11.3364 26.3839 11.3006C26.3181 11.2647 26.2437 11.2478 26.1688 11.2516C26.1043 11.2541 26.0414 11.272 25.9852 11.3036L23.4908 12.7515C23.3981 12.8055 23.3305 12.894 23.3028 12.9977C23.2751 13.1013 23.2895 13.2118 23.3429 13.3048L23.4551 13.5014L23.1804 13.6607L22.7653 13.9004L22.3493 14.1417L22.0178 14.3334C21.3431 13.9435 20.5605 13.7822 19.7866 13.8736C19.307 13.9319 18.8442 14.0873 18.4265 14.3302C18.426 14.3302 18.4254 14.3302 18.4249 14.3302L18.2543 14.4285L18.0641 14.3253C17.6412 14.0942 17.1778 13.9466 16.6991 13.8906C15.9281 13.8013 15.1546 13.9638 14.4859 14.3399L13.7335 13.9053L13.0429 13.5047L13.1574 13.3064C13.2109 13.2131 13.2253 13.1023 13.1975 12.9983C13.1696 12.8943 13.1017 12.8056 13.0088 12.7515L10.5144 11.3036C10.4468 11.2648 10.3695 11.2461 10.2918 11.25ZM10.4599 12.2136L12.2531 13.2528L8.81625 19.2304L7.02307 18.1912L10.4599 12.2136ZM26.0404 12.2136L29.4773 18.1928L27.6841 19.2304L24.2473 13.2528L26.0404 12.2136ZM23.8597 14.2043L25.856 17.6801L25.583 17.8386L25.1678 18.0799C25.1673 18.0799 25.1667 18.0799 25.1662 18.0799L24.7502 18.3236L24.7315 18.3342C24.6533 18.0238 24.5347 17.725 24.3789 17.4453C24.371 17.4251 24.3615 17.4055 24.3504 17.3868V17.3852L23.3649 15.6708V15.6692C23.1922 15.3707 22.978 15.0982 22.7287 14.8599L22.7571 14.8437L23.1731 14.6032L23.5883 14.3619L23.8597 14.2051V14.2043ZM12.6391 14.2099L13.3256 14.6064L13.7684 14.8632C13.5201 15.1003 13.307 15.3717 13.1355 15.6692L12.1499 17.3852C11.9828 17.6857 11.8594 18.0086 11.7835 18.3439L11.3326 18.0815L10.6419 17.6818L12.6391 14.2099ZM20.4309 14.6617C21.1459 14.7129 21.8317 15.0436 22.3273 15.6091C22.45 15.7496 22.5629 15.9048 22.6604 16.0738V16.0754L23.646 17.7898V17.7914C23.6471 17.7931 23.6482 17.7947 23.6493 17.7963C23.9885 18.3873 24.1022 19.0812 23.9694 19.7496C23.8957 19.6735 23.8124 19.6074 23.7216 19.5529L20.3976 17.6249C20.4178 17.3767 20.3688 17.1279 20.2563 16.9058C20.2491 16.884 20.2402 16.8628 20.2294 16.8424C20.2279 16.8392 20.2262 16.8359 20.2246 16.8327C20.223 16.8294 20.2214 16.8262 20.2197 16.8229V16.8213C20.1276 16.6613 20.0031 16.5224 19.8541 16.4134H19.8533C19.6299 16.2536 19.365 16.1618 19.0906 16.1493C18.8162 16.1367 18.5441 16.2039 18.3071 16.3428C18.3016 16.3456 18.2962 16.3486 18.2908 16.3517L18.2689 16.3663L16.4538 17.4169C16.433 17.4295 16.4134 17.4439 16.3953 17.4599L16.3506 17.4843C15.9419 17.7216 15.4576 17.5631 15.0733 17.2162L16.1556 16.5865L17.2809 15.9349C17.2844 15.9328 17.288 15.9306 17.2914 15.9284L17.2947 15.9268L18.4728 15.2443C18.4725 15.2443 18.4731 15.2443 18.4728 15.2443L18.8344 15.033H18.836C19.3182 14.7516 19.874 14.6222 20.4309 14.6617ZM16.0638 14.6763C16.5249 14.651 16.9854 14.7353 17.4076 14.9225L16.8876 15.2231L15.7477 15.8837C15.7471 15.8837 15.7466 15.8837 15.7461 15.8837L14.1877 16.7937C14.0952 16.8477 14.0277 16.936 14.0001 17.0395C13.9724 17.143 13.9866 17.2532 14.0398 17.3462C14.6037 18.3277 15.8168 18.7356 16.7568 18.1896L18.5768 17.1341C18.5823 17.1307 18.5877 17.1272 18.5931 17.1236L18.6881 17.0626L18.7149 17.0464C19.005 16.879 19.3243 16.9586 19.4868 17.1959C19.4029 17.2072 19.3246 17.2445 19.2629 17.3025C19.2012 17.3605 19.1591 17.4364 19.1427 17.5195C19.1262 17.6026 19.1361 17.6887 19.171 17.7659C19.2059 17.8431 19.2641 17.9074 19.3373 17.9499L19.7029 18.1611C19.7281 18.1799 19.7554 18.1957 19.7842 18.2083L23.3137 20.2558C23.529 20.3801 23.5981 20.6393 23.4746 20.8554C23.4473 20.9059 23.41 20.9503 23.3649 20.9858C23.3199 21.0214 23.2681 21.0475 23.2127 21.0624C23.1572 21.0773 23.0993 21.0807 23.0425 21.0725C22.9857 21.0643 22.9312 21.0446 22.8823 21.0146L18.9311 18.7242L18.5151 18.4829C18.4218 18.4288 18.3108 18.414 18.2066 18.4417C18.1023 18.4695 18.0134 18.5375 17.9593 18.6308C17.9052 18.7241 17.8904 18.835 17.9182 18.9393C17.9459 19.0435 18.0139 19.1324 18.1072 19.1865L18.5232 19.427L22.4744 21.7174L22.8904 21.9588C22.941 21.9869 22.9853 22.025 23.0208 22.0708C23.0563 22.1165 23.0823 22.1689 23.0971 22.2249C23.1119 22.2809 23.1152 22.3393 23.1069 22.3966C23.0986 22.4539 23.0789 22.5089 23.0488 22.5584C23.0216 22.6089 22.9844 22.6532 22.9394 22.6888C22.8944 22.7244 22.8426 22.7504 22.7872 22.7652C22.7319 22.78 22.674 22.7834 22.6173 22.7751C22.5606 22.7668 22.5061 22.7469 22.4573 22.7168L22.0413 22.4755L18.0901 20.1843L17.6741 19.9429C17.628 19.9162 17.577 19.8987 17.5241 19.8917C17.4712 19.8846 17.4175 19.888 17.3659 19.9017C17.3143 19.9154 17.266 19.9391 17.2236 19.9715C17.1812 20.0039 17.1456 20.0443 17.1188 20.0904C17.092 20.1366 17.0746 20.1875 17.0675 20.2404C17.0604 20.2933 17.0638 20.3471 17.0775 20.3986C17.0912 20.4502 17.1149 20.4986 17.1473 20.541C17.1797 20.5834 17.2201 20.619 17.2663 20.6458L17.6823 20.8871L17.9236 21.0268L21.6334 23.1791C21.6839 23.2072 21.7283 23.2451 21.7638 23.2907C21.7993 23.3362 21.8253 23.3884 21.8403 23.4442C21.8552 23.5 21.8587 23.5582 21.8507 23.6154C21.8427 23.6726 21.8232 23.7276 21.7935 23.7771C21.793 23.7771 21.7924 23.7771 21.7919 23.7771C21.7647 23.8277 21.7275 23.8721 21.6826 23.9078C21.6377 23.9434 21.586 23.9696 21.5306 23.9845C21.4752 23.9995 21.4174 24.003 21.3606 23.9949C21.3038 23.9868 21.2493 23.9671 21.2004 23.9372L20.3684 23.4546L16.834 21.4046L16.0012 20.922C15.9079 20.869 15.7975 20.855 15.694 20.8831C15.5904 20.9112 15.5022 20.9791 15.4486 21.072C15.3949 21.1649 15.3802 21.2753 15.4076 21.379C15.4351 21.4827 15.5024 21.5714 15.5949 21.6256L19.9605 24.1582C20.1758 24.2825 20.2449 24.5401 20.1214 24.7562C20.0942 24.8068 20.057 24.8514 20.012 24.8871C19.967 24.9229 19.9152 24.949 19.8598 24.964C19.8043 24.979 19.7463 24.9825 19.6895 24.9743C19.6326 24.9661 19.578 24.9463 19.5291 24.9163L15.4146 22.5316C15.4129 22.5316 15.4113 22.5316 15.4097 22.5316L15.1619 22.3869C15.1597 22.3869 15.1575 22.3869 15.1554 22.3869L13.87 21.6411C13.7847 21.5915 13.714 21.5273 13.6352 21.4713C13.581 21.3865 13.4974 21.3248 13.4004 21.2982C12.9194 20.8657 12.6023 20.2805 12.5025 19.6414C12.4028 19.0023 12.5265 18.3484 12.8528 17.7898L13.8399 16.0746C14.0653 15.6752 14.3866 15.3382 14.7749 15.094C15.1631 14.8499 15.6061 14.7064 16.0638 14.6763ZM8.44819 17.3275C8.36196 17.3254 8.27676 17.3468 8.20156 17.3892C8.12636 17.4317 8.06392 17.4937 8.02082 17.5688C7.95755 17.6796 7.94058 17.8111 7.97363 17.9345C8.00668 18.0579 8.08705 18.163 8.19713 18.2269C8.30726 18.291 8.43816 18.3084 8.56109 18.2755C8.68403 18.2426 8.78895 18.162 8.85282 18.0514C8.91608 17.9406 8.93305 17.8091 8.9 17.6858C8.86695 17.5624 8.78658 17.4572 8.6765 17.3933C8.60701 17.3528 8.52851 17.3305 8.44819 17.3283V17.3275ZM28.0522 17.3275C27.9713 17.3294 27.8922 17.3517 27.8223 17.3925C27.7122 17.4567 27.6321 17.5621 27.5993 17.6857C27.5665 17.8092 27.5839 17.9408 27.6476 18.0514C27.7113 18.1622 27.8162 18.2429 27.9391 18.276C28.0621 18.3091 28.193 18.2917 28.3033 18.2278C28.4133 18.1639 28.4937 18.0587 28.5268 17.9353C28.5598 17.812 28.5428 17.6805 28.4796 17.5696C28.4366 17.4944 28.3742 17.4322 28.299 17.3896C28.2238 17.347 28.1385 17.3255 28.0522 17.3275ZM13.3955 22.2968C13.4199 22.3106 13.4386 22.3301 13.4621 22.3439L14.0829 22.703C14.0689 22.7095 14.0554 22.7169 14.0423 22.7249C13.9933 22.7553 13.9386 22.7752 13.8817 22.7836C13.8247 22.7919 13.7666 22.7885 13.711 22.7735C13.6554 22.7585 13.6035 22.7322 13.5584 22.6963C13.5134 22.6605 13.4762 22.6157 13.4491 22.5649C13.403 22.4836 13.3842 22.3896 13.3955 22.2968ZM14.8938 23.1694L15.0018 23.2328H15.0034L15.7648 23.6739L15.2968 23.9453C15.2478 23.9751 15.1933 23.9947 15.1365 24.0028C15.0798 24.0108 15.022 24.0073 14.9666 23.9923C14.9113 23.9773 14.8596 23.9513 14.8147 23.9157C14.7697 23.8801 14.7325 23.8357 14.7053 23.7853C14.6754 23.7357 14.6558 23.6806 14.6477 23.6234C14.6396 23.5661 14.6432 23.5078 14.6581 23.4519C14.673 23.396 14.6991 23.3437 14.7347 23.2981C14.7703 23.2525 14.8147 23.2145 14.8653 23.1864C14.875 23.1812 14.8845 23.1755 14.8938 23.1694ZM16.5732 24.1419L17.4426 24.6481L16.9697 24.9228C16.9207 24.9527 16.8661 24.9724 16.8093 24.9805C16.7524 24.9887 16.6945 24.9851 16.6391 24.9702C16.5837 24.9552 16.5319 24.9291 16.4869 24.8934C16.4419 24.8577 16.4046 24.8132 16.3774 24.7627C16.3474 24.7133 16.3277 24.6583 16.3195 24.6011C16.3113 24.5439 16.3147 24.4856 16.3296 24.4298C16.3445 24.3739 16.3705 24.3216 16.4061 24.2761C16.4416 24.2305 16.486 24.1927 16.5366 24.1647C16.5492 24.1578 16.5614 24.1502 16.5732 24.1419Z" fill="#9F7EEE"/>
</svg>
