<svg width="37" height="36" viewBox="0 0 37 36" fill="none" xmlns="http://www.w3.org/2000/svg">
<rect x="0.5" width="36" height="36" rx="3" fill="#E6DCFF"/>
<g clip-path="url(#clip0_113_853)">
<path d="M11.5304 9.10998H8.65039V29.27H24.9704V26.39H27.8504V6.22998H11.5304V9.10998ZM24.0104 28.31H9.61039V10.07H20.6504V13.43H24.0104V28.31ZM21.6104 10.7487L23.3317 12.47H21.6104V10.7487ZM12.4904 7.18998H26.8904V25.43H24.9704V12.7513L21.3291 9.10998H12.4904V7.18998Z" fill="#9F7EEE"/>
<path d="M16.8108 12.47H11.0508V18.23H16.8108V12.47ZM15.8508 17.27H12.0108V13.43H15.8508V17.27ZM18.2508 14.87H22.5708V15.83H18.2508V14.87ZM18.2508 17.27H22.5708V18.23H18.2508V17.27ZM11.0508 19.67H18.2508V20.63H11.0508V19.67ZM19.6908 19.67H22.5708V20.63H19.6908V19.67ZM11.0508 22.07H13.9308V23.03H11.0508V22.07ZM15.3708 22.07H22.5708V23.03H15.3708V22.07ZM11.0508 24.47H17.7708V25.43H11.0508V24.47ZM19.2108 24.47H22.5708V25.43H19.2108V24.47Z" fill="#9F7EEE"/>
</g>
<defs>
<clipPath id="clip0_113_853">
<rect width="24" height="24" fill="white" transform="translate(6.25 5.75)"/>
</clipPath>
</defs>
</svg>
