<?xml version="1.0" encoding="UTF-8" standalone="no"?>
<!DOCTYPE svg PUBLIC "-//W3C//DTD SVG 1.1//EN" "http://www.w3.org/Graphics/SVG/1.1/DTD/svg11.dtd">
<!-- Created with Vectornator (http://vectornator.io/) -->
<svg height="100%" stroke-miterlimit="10" style="fill-rule:nonzero;clip-rule:evenodd;stroke-linecap:round;stroke-linejoin:round;" version="1.1" viewBox="0 0 180 180" width="100%" xml:space="preserve" xmlns="http://www.w3.org/2000/svg" xmlns:vectornator="http://vectornator.io" xmlns:xlink="http://www.w3.org/1999/xlink">
<defs/>
<g id="Layer-1" vectornator:layerName="Layer 1">
<g opacity="1">
<g opacity="1">
<path d="M104.469 36.4807C104.469 33.2467 107.179 30.6251 110.523 30.6251C113.867 30.6251 116.578 33.2467 116.578 36.4807C116.578 39.7147 113.867 42.3363 110.523 42.3363C107.179 42.3363 104.469 39.7147 104.469 36.4807Z" fill="#00a9a9" fill-rule="nonzero" opacity="1" stroke="#00a9a9" stroke-linecap="butt" stroke-linejoin="miter" stroke-width="1"/>
<g opacity="1">
<path d="M91.6025 15.8737C90.4738 10.0179 76.1023 87.0297 123.142 115.828C125.202 117.09 105.635 94.8933 110.903 76.8116C113.417 68.1788 124.819 60.4133 138.767 54.5276C142.427 52.9832 117.845 58.1251 105.918 51.1109C92.7464 43.3646 92.5866 20.9796 91.6025 15.8737Z" fill="#00a9a9" fill-rule="nonzero" opacity="1" stroke="#00a9a9" stroke-linecap="butt" stroke-linejoin="miter" stroke-width="1"/>
<path d="M91.6025 15.8737C90.4738 10.0179 76.1023 87.0297 123.142 115.828C125.202 117.09 105.635 94.8933 110.903 76.8116C113.417 68.1788 124.819 60.4133 138.767 54.5276C142.427 52.9832 117.845 58.1251 105.918 51.1109C92.7464 43.3646 92.5866 20.9796 91.6025 15.8737Z" fill="#00a9a9" fill-rule="nonzero" opacity="1" stroke="#00a9a9" stroke-linecap="butt" stroke-linejoin="miter" stroke-width="1"/>
<path d="M84.1131 37.1015C84.6972 57.9462 85.7326 80.278 102.168 100.716C110.076 110.55 89.7645 91.8652 89.7645 91.8652L60.3618 112.362C60.3618 112.362 70.7108 78.2123 70.6961 78.2211C70.6814 78.2299 41.4969 56.0573 41.4789 56.0969C41.4609 56.1364 78.1457 55.682 78.1457 55.682C78.1457 55.682 80.9155 45.4774 82.7594 35.4454C84.6034 25.4133 84.0562 35.07 84.1131 37.1015Z" fill="#a4e0e0" fill-rule="nonzero" opacity="1" stroke="#a4e0e0" stroke-linecap="butt" stroke-linejoin="miter" stroke-width="1"/>
</g>
</g>
<g opacity="1">
<path d="M41.2384 133.959L41.2384 135.711C41.2384 136.276 41.2432 136.791 41.2529 137.259C41.2627 137.726 41.2675 138.027 41.2675 138.164C41.5595 138.183 41.9099 138.203 42.3187 138.222C42.7275 138.242 43.2336 138.251 43.837 138.251C46.0367 138.251 47.7789 137.502 49.0636 136.003C50.3483 134.504 50.9907 132.236 50.9907 129.2C50.9907 127.993 50.8301 126.913 50.5089 125.959C50.1877 125.005 49.7352 124.192 49.1512 123.521C48.5672 122.849 47.8664 122.333 47.0489 121.973C46.2313 121.613 45.3164 121.433 44.3042 121.433C43.6034 121.433 43.0341 121.448 42.5961 121.477C42.1581 121.506 41.7153 121.54 41.2675 121.579C41.2675 121.715 41.2627 122.017 41.2529 122.484C41.2432 122.951 41.2384 123.477 41.2384 124.061L41.2384 125.813L41.2384 127.273L41.2384 132.47L41.2384 133.959ZM36.9169 127.857C36.9169 126.241 36.8975 124.805 36.8585 123.55C36.8196 122.294 36.7612 121.034 36.6834 119.769C37.0143 119.808 37.3744 119.842 37.7637 119.871C38.153 119.9 38.591 119.915 39.0776 119.915C39.72 119.915 40.4403 119.89 41.2384 119.842C42.0364 119.793 43.0779 119.769 44.3626 119.769C46.0367 119.769 47.5599 119.919 48.9322 120.221C50.3045 120.523 51.4871 121.034 52.4798 121.754C53.4726 122.474 54.2415 123.443 54.7865 124.659C55.3316 125.876 55.6041 127.409 55.6041 129.258C55.6041 130.874 55.3364 132.334 54.8011 133.638C54.2658 134.942 53.5359 136.057 52.6112 136.981C51.6866 137.906 50.616 138.611 49.3994 139.098C48.1828 139.585 46.8834 139.828 45.5014 139.828C44.0414 139.828 42.7956 139.818 41.7639 139.799C40.7322 139.779 39.8368 139.77 39.0776 139.77C38.591 139.77 38.153 139.77 37.7637 139.77C37.3744 139.77 37.0143 139.789 36.6834 139.828C36.7612 138.621 36.8196 137.39 36.8585 136.134C36.8975 134.879 36.9169 133.443 36.9169 131.828L36.9169 127.857Z" fill="#000000" fill-rule="nonzero" opacity="1" stroke="none"/>
<path d="M59.7503 127.857C59.7503 126.241 59.7308 124.805 59.6919 123.55C59.653 122.294 59.5946 121.034 59.5167 119.769C59.8476 119.808 60.2078 119.842 60.5971 119.871C60.9864 119.9 61.4244 119.915 61.911 119.915C62.3977 119.915 62.8356 119.9 63.225 119.871C63.6143 119.842 63.9744 119.808 64.3053 119.769C64.2274 121.034 64.169 122.294 64.1301 123.55C64.0912 124.805 64.0717 126.241 64.0717 127.857L64.0717 131.828C64.0717 133.443 64.0912 134.879 64.1301 136.134C64.169 137.39 64.2274 138.621 64.3053 139.828C63.9744 139.789 63.6143 139.77 63.225 139.77C62.8356 139.77 62.3977 139.77 61.911 139.77C61.4244 139.77 60.9864 139.77 60.5971 139.77C60.2078 139.77 59.8476 139.789 59.5167 139.828C59.5946 138.621 59.653 137.39 59.6919 136.134C59.7308 134.879 59.7503 133.443 59.7503 131.828L59.7503 127.857Z" fill="#000000" fill-rule="nonzero" opacity="1" stroke="none"/>
<path d="M77.7951 125.375C77.7951 124.635 77.7124 124.012 77.5469 123.506C77.3814 123 77.1576 122.596 76.8753 122.294C76.5931 121.993 76.2622 121.774 75.8826 121.637C75.503 121.501 75.1088 121.433 74.7 121.433L74.0285 121.433C73.9311 121.433 73.8338 121.433 73.7365 121.433C73.6391 121.433 73.5515 121.443 73.4737 121.462C73.4542 122.864 73.4396 124.241 73.4299 125.594C73.4202 126.947 73.4153 128.304 73.4153 129.667C73.9019 129.667 74.4032 129.618 74.919 129.521C75.4349 129.424 75.9069 129.224 76.3352 128.922C76.7634 128.621 77.1138 128.188 77.3863 127.623C77.6588 127.059 77.7951 126.309 77.7951 125.375ZM69.0939 127.857C69.0939 126.241 69.0744 124.805 69.0355 123.55C68.9966 122.294 68.9382 121.034 68.8603 119.769C69.1912 119.808 69.5513 119.842 69.9406 119.871C70.33 119.9 70.7679 119.915 71.2546 119.915C71.9359 119.915 72.6415 119.89 73.3715 119.842C74.1015 119.793 74.8168 119.769 75.5176 119.769C76.8997 119.769 77.98 119.871 78.7586 120.075C79.5373 120.28 80.1504 120.576 80.5982 120.966C81.2211 121.472 81.6785 122.036 81.9705 122.659C82.2625 123.282 82.4085 124.032 82.4085 124.908C82.4085 126.017 82.2236 126.971 81.8537 127.769C81.4839 128.567 80.9631 129.214 80.2916 129.711C79.62 130.207 78.8268 130.572 77.9119 130.806C76.997 131.039 75.9945 131.156 74.9044 131.156L73.4153 131.156C73.4153 132.616 73.4299 134.071 73.4591 135.521C73.4883 136.971 73.5515 138.407 73.6489 139.828C73.318 139.789 72.9578 139.77 72.5685 139.77C72.1792 139.77 71.7412 139.77 71.2546 139.77C70.7679 139.77 70.33 139.77 69.9406 139.77C69.5513 139.77 69.1912 139.789 68.8603 139.828C68.9382 138.621 68.9966 137.39 69.0355 136.134C69.0744 134.879 69.0939 133.443 69.0939 131.828L69.0939 127.857Z" fill="#000000" fill-rule="nonzero" opacity="1" stroke="none"/>
<path d="M98.7889 130.163C98.0492 130.144 97.3095 130.12 96.5698 130.09C95.8301 130.061 95.0904 130.047 94.3507 130.047C93.611 130.047 92.8713 130.056 92.1316 130.076C91.3919 130.095 90.6522 130.124 89.9125 130.163L89.9125 131.828C89.9125 133.443 89.932 134.879 89.9709 136.134C90.0099 137.39 90.0683 138.621 90.1461 139.828C89.8152 139.789 89.4551 139.77 89.0658 139.77C88.6765 139.77 88.2385 139.77 87.7518 139.77C87.2652 139.77 86.8272 139.77 86.4379 139.77C86.0486 139.77 85.6885 139.789 85.3575 139.828C85.4354 138.621 85.4938 137.39 85.5327 136.134C85.5717 134.879 85.5911 133.443 85.5911 131.828L85.5911 127.857C85.5911 126.241 85.5717 124.805 85.5327 123.55C85.4938 122.294 85.4354 121.034 85.3575 119.769C85.6885 119.808 86.0486 119.842 86.4379 119.871C86.8272 119.9 87.2652 119.915 87.7518 119.915C88.2385 119.915 88.6765 119.9 89.0658 119.871C89.4551 119.842 89.8152 119.808 90.1461 119.769C90.0488 121.034 89.9855 122.285 89.9563 123.521C89.9271 124.757 89.9125 126.183 89.9125 127.798C90.4187 127.818 91.027 127.832 91.7375 127.842C92.448 127.852 93.3288 127.857 94.3799 127.857C95.4311 127.857 96.2876 127.852 96.9494 127.842C97.6113 127.832 98.2244 127.818 98.7889 127.798C98.7889 126.183 98.7695 124.757 98.7305 123.521C98.6916 122.285 98.6332 121.034 98.5553 119.769C98.8863 119.808 99.2464 119.842 99.6357 119.871C100.025 119.9 100.463 119.915 100.95 119.915C101.436 119.915 101.874 119.9 102.264 119.871C102.653 119.842 103.013 119.808 103.344 119.769C103.266 121.034 103.208 122.294 103.169 123.55C103.13 124.805 103.11 126.241 103.11 127.857L103.11 131.828C103.11 133.443 103.13 134.879 103.169 136.134C103.208 137.39 103.266 138.621 103.344 139.828C103.013 139.789 102.653 139.77 102.264 139.77C101.874 139.77 101.436 139.77 100.95 139.77C100.463 139.77 100.025 139.77 99.6357 139.77C99.2464 139.77 98.8863 139.789 98.5553 139.828C98.6332 138.621 98.6916 137.39 98.7305 136.134C98.7695 134.879 98.7889 133.443 98.7889 131.828L98.7889 130.163Z" fill="#000000" fill-rule="nonzero" opacity="1" stroke="none"/>
<path d="M112.629 133.959L112.629 135.711C112.629 136.276 112.634 136.791 112.644 137.259C112.653 137.726 112.658 138.027 112.658 138.164C112.95 138.183 113.301 138.203 113.709 138.222C114.118 138.242 114.624 138.251 115.228 138.251C117.427 138.251 119.17 137.502 120.454 136.003C121.739 134.504 122.381 132.236 122.381 129.2C122.381 127.993 122.221 126.913 121.9 125.959C121.579 125.005 121.126 124.192 120.542 123.521C119.958 122.849 119.257 122.333 118.44 121.973C117.622 121.613 116.707 121.433 115.695 121.433C114.994 121.433 114.425 121.448 113.987 121.477C113.549 121.506 113.106 121.54 112.658 121.579C112.658 121.715 112.653 122.017 112.644 122.484C112.634 122.951 112.629 123.477 112.629 124.061L112.629 125.813L112.629 127.273L112.629 132.47L112.629 133.959ZM108.308 127.857C108.308 126.241 108.288 124.805 108.249 123.55C108.21 122.294 108.152 121.034 108.074 119.769C108.405 119.808 108.765 119.842 109.154 119.871C109.544 119.9 109.982 119.915 110.468 119.915C111.111 119.915 111.831 119.89 112.629 119.842C113.427 119.793 114.469 119.769 115.753 119.769C117.427 119.769 118.951 119.919 120.323 120.221C121.695 120.523 122.878 121.034 123.871 121.754C124.863 122.474 125.632 123.443 126.177 124.659C126.722 125.876 126.995 127.409 126.995 129.258C126.995 130.874 126.727 132.334 126.192 133.638C125.657 134.942 124.927 136.057 124.002 136.981C123.077 137.906 122.007 138.611 120.79 139.098C119.574 139.585 118.274 139.828 116.892 139.828C115.432 139.828 114.186 139.818 113.155 139.799C112.123 139.779 111.228 139.77 110.468 139.77C109.982 139.77 109.544 139.77 109.154 139.77C108.765 139.77 108.405 139.789 108.074 139.828C108.152 138.621 108.21 137.39 108.249 136.134C108.288 134.879 108.308 133.443 108.308 131.828L108.308 127.857Z" fill="#000000" fill-rule="nonzero" opacity="1" stroke="none"/>
<path d="M135.55 125.258C135.044 126.426 134.567 127.579 134.119 128.718C133.672 129.857 133.234 131.02 132.805 132.207L138.149 132.207C137.721 131.02 137.297 129.857 136.879 128.718C136.46 127.579 136.017 126.426 135.55 125.258ZM145.886 139.828C145.419 139.789 144.976 139.77 144.558 139.77C144.139 139.77 143.726 139.77 143.317 139.77C142.908 139.77 142.494 139.77 142.076 139.77C141.657 139.77 141.244 139.789 140.835 139.828C140.524 138.874 140.202 137.901 139.871 136.908C139.541 135.915 139.19 134.923 138.82 133.93C138.197 133.91 137.575 133.896 136.952 133.886C136.329 133.876 135.706 133.872 135.083 133.872C134.577 133.872 134.071 133.876 133.565 133.886C133.058 133.896 132.552 133.91 132.046 133.93C131.657 134.923 131.297 135.915 130.966 136.908C130.635 137.901 130.333 138.874 130.061 139.828C129.827 139.789 129.598 139.77 129.375 139.77C129.151 139.77 128.922 139.77 128.688 139.77C128.455 139.77 128.221 139.77 127.988 139.77C127.754 139.77 127.501 139.789 127.228 139.828C127.462 139.322 127.773 138.621 128.163 137.726C128.552 136.83 128.98 135.818 129.448 134.689C129.915 133.56 130.416 132.348 130.951 131.054C131.487 129.759 132.022 128.45 132.557 127.127C133.093 125.803 133.618 124.499 134.134 123.214C134.65 121.929 135.122 120.732 135.55 119.623C135.745 119.662 135.93 119.696 136.105 119.725C136.28 119.754 136.465 119.769 136.66 119.769C136.854 119.769 137.039 119.754 137.214 119.725C137.39 119.696 137.575 119.662 137.769 119.623C138.392 121.277 139.059 123.049 139.769 124.937C140.48 126.825 141.195 128.679 141.915 130.499C142.636 132.319 143.336 134.047 144.018 135.682C144.699 137.317 145.322 138.699 145.886 139.828Z" fill="#000000" fill-rule="nonzero" opacity="1" stroke="none"/>
<path d="M51.3714 149.482C51.1612 150.993 51.0035 152.485 50.8984 153.956C50.7933 155.428 50.6881 156.899 50.583 158.371C50.4253 158.345 50.2677 158.332 50.11 158.332C49.9523 158.332 49.8012 158.332 49.6567 158.332C49.499 158.332 49.3446 158.332 49.1935 158.332C49.0424 158.332 48.888 158.345 48.7304 158.371C49.1508 156.111 49.5253 153.864 49.8538 151.63C50.1823 149.397 50.4845 147.13 50.7604 144.831C50.9049 144.857 51.0396 144.88 51.1644 144.9C51.2893 144.92 51.4239 144.929 51.5685 144.929C51.6867 144.929 51.8116 144.92 51.9429 144.9C52.0743 144.88 52.2123 144.857 52.3568 144.831C52.7116 145.619 53.0828 146.421 53.4704 147.235C53.858 148.05 54.2456 148.861 54.6332 149.669C55.0209 150.478 55.4085 151.269 55.7961 152.044C56.1837 152.82 56.5549 153.555 56.9096 154.252C57.698 152.78 58.4831 151.24 59.2649 149.63C60.0467 148.02 60.7923 146.421 61.5019 144.831C61.8303 144.897 62.1128 144.929 62.3494 144.929C62.5727 144.929 62.8487 144.897 63.1771 144.831C63.3085 145.961 63.4498 147.176 63.6009 148.477C63.752 149.778 63.8998 151.049 64.0443 152.291C64.1889 153.532 64.3334 154.692 64.4779 155.769C64.6225 156.847 64.7539 157.714 64.8721 158.371C64.6093 158.345 64.3433 158.332 64.0739 158.332C63.8045 158.332 63.5385 158.332 63.2757 158.332C63.0129 158.332 62.7435 158.332 62.4676 158.332C62.1917 158.332 61.9158 158.345 61.6398 158.371C61.5741 157.018 61.4657 155.553 61.3146 153.976C61.1635 152.399 61.0091 150.836 60.8515 149.285L60.812 149.285C60.0631 150.836 59.3273 152.36 58.6046 153.858C57.882 155.356 57.1659 156.86 56.4563 158.371C56.3906 158.358 56.3282 158.348 56.2691 158.341C56.21 158.335 56.1476 158.332 56.0819 158.332C56.0162 158.332 55.9538 158.335 55.8946 158.341C55.8355 158.348 55.7731 158.358 55.7074 158.371C54.9979 156.899 54.2916 155.428 53.5887 153.956C52.8857 152.485 52.1597 150.993 51.4108 149.482L51.3714 149.482Z" fill="#66b2b2" fill-rule="nonzero" opacity="1" stroke="none"/>
<path d="M67.1387 150.29C67.1387 149.2 67.1255 148.231 67.0993 147.383C67.073 146.536 67.0336 145.685 66.981 144.831C67.5723 144.844 68.157 144.864 68.7351 144.89C69.3132 144.916 69.8979 144.929 70.4892 144.929C71.4615 144.929 72.3254 144.92 73.081 144.9C73.8365 144.88 74.3456 144.857 74.6084 144.831C74.5559 145.041 74.5296 145.317 74.5296 145.659C74.5296 145.869 74.5362 146.033 74.5493 146.151C74.5624 146.27 74.5821 146.401 74.6084 146.546C74.2274 146.519 73.8102 146.493 73.3569 146.467C72.9036 146.44 72.4634 146.414 72.0364 146.388C71.6094 146.362 71.225 146.342 70.8834 146.329C70.5418 146.316 70.2987 146.309 70.1542 146.309C70.1016 147.032 70.072 147.748 70.0655 148.457C70.0589 149.167 70.0556 149.883 70.0556 150.606C70.9097 150.592 71.6816 150.573 72.3714 150.546C73.0613 150.52 73.7806 150.487 74.5296 150.448C74.4902 150.671 74.4639 150.842 74.4507 150.96C74.4376 151.079 74.431 151.203 74.431 151.335C74.431 151.44 74.4409 151.548 74.4606 151.66C74.4803 151.772 74.5033 151.933 74.5296 152.143C73.0317 152.025 71.5404 151.966 70.0556 151.966C70.0556 152.386 70.0523 152.806 70.0458 153.227C70.0392 153.647 70.0359 154.068 70.0359 154.488C70.0359 155.342 70.0556 156.164 70.095 156.952C70.844 156.952 71.5929 156.932 72.3419 156.893C73.0908 156.853 73.8463 156.788 74.6084 156.696C74.5821 156.84 74.5624 156.972 74.5493 157.09C74.5362 157.208 74.5296 157.372 74.5296 157.583C74.5296 157.793 74.5362 157.957 74.5493 158.075C74.5624 158.194 74.5821 158.292 74.6084 158.371C74.2537 158.358 73.8168 158.348 73.2978 158.341C72.7788 158.335 72.0659 158.332 71.1593 158.332C70.3578 158.332 69.7074 158.332 69.2081 158.332C68.722 158.332 68.3311 158.332 68.0354 158.332C67.7398 158.332 67.5164 158.335 67.3653 158.341C67.2142 158.348 67.0861 158.358 66.981 158.371C67.0336 157.556 67.073 156.725 67.0993 155.878C67.1255 155.03 67.1387 154.061 67.1387 152.971L67.1387 150.29Z" fill="#66b2b2" fill-rule="nonzero" opacity="1" stroke="none"/>
<path d="M80.0876 154.409L80.0876 155.592C80.0876 155.973 80.0908 156.321 80.0974 156.637C80.104 156.952 80.1073 157.156 80.1073 157.248C80.3044 157.261 80.5409 157.274 80.8168 157.287C81.0927 157.3 81.4343 157.307 81.8417 157.307C83.3264 157.307 84.5024 156.801 85.3696 155.789C86.2368 154.777 86.6704 153.247 86.6704 151.197C86.6704 150.382 86.562 149.653 86.3452 149.009C86.1284 148.365 85.8229 147.817 85.4287 147.363C85.0345 146.91 84.5615 146.562 84.0097 146.319C83.4578 146.076 82.8403 145.954 82.157 145.954C81.684 145.954 81.2997 145.964 81.004 145.984C80.7084 146.004 80.4095 146.027 80.1073 146.053C80.1073 146.145 80.104 146.348 80.0974 146.664C80.0908 146.979 80.0876 147.334 80.0876 147.728L80.0876 148.911L80.0876 149.896L80.0876 153.404L80.0876 154.409ZM77.1706 150.29C77.1706 149.2 77.1575 148.231 77.1312 147.383C77.1049 146.536 77.0655 145.685 77.0129 144.831C77.2363 144.857 77.4794 144.88 77.7422 144.9C78.005 144.92 78.3006 144.929 78.6291 144.929C79.0627 144.929 79.5488 144.913 80.0876 144.88C80.6263 144.847 81.3292 144.831 82.1964 144.831C83.3264 144.831 84.3546 144.933 85.2809 145.136C86.2072 145.34 87.0054 145.685 87.6756 146.171C88.3457 146.657 88.8647 147.311 89.2326 148.132C89.6005 148.953 89.7844 149.988 89.7844 151.236C89.7844 152.327 89.6038 153.312 89.2424 154.193C88.8811 155.073 88.3884 155.825 87.7642 156.449C87.1401 157.073 86.4175 157.55 85.5962 157.878C84.775 158.207 83.898 158.371 82.9651 158.371C81.9796 158.371 81.1387 158.364 80.4423 158.351C79.7459 158.338 79.1415 158.332 78.6291 158.332C78.3006 158.332 78.005 158.332 77.7422 158.332C77.4794 158.332 77.2363 158.345 77.0129 158.371C77.0655 157.556 77.1049 156.725 77.1312 155.878C77.1575 155.03 77.1706 154.061 77.1706 152.971L77.1706 150.29Z" fill="#66b2b2" fill-rule="nonzero" opacity="1" stroke="none"/>
<path d="M92.5831 150.29C92.5831 149.2 92.57 148.231 92.5437 147.383C92.5174 146.536 92.478 145.685 92.4255 144.831C92.6488 144.857 92.8919 144.88 93.1547 144.9C93.4175 144.92 93.7131 144.929 94.0416 144.929C94.3701 144.929 94.6657 144.92 94.9285 144.9C95.1913 144.88 95.4344 144.857 95.6577 144.831C95.6052 145.685 95.5658 146.536 95.5395 147.383C95.5132 148.231 95.5001 149.2 95.5001 150.29L95.5001 152.971C95.5001 154.061 95.5132 155.03 95.5395 155.878C95.5658 156.725 95.6052 157.556 95.6577 158.371C95.4344 158.345 95.1913 158.332 94.9285 158.332C94.6657 158.332 94.3701 158.332 94.0416 158.332C93.7131 158.332 93.4175 158.332 93.1547 158.332C92.8919 158.332 92.6488 158.345 92.4255 158.371C92.478 157.556 92.5174 156.725 92.5437 155.878C92.57 155.03 92.5831 154.061 92.5831 152.971L92.5831 150.29Z" fill="#66b2b2" fill-rule="nonzero" opacity="1" stroke="none"/>
<path d="M109.73 156.144C109.625 156.42 109.533 156.699 109.454 156.982C109.375 157.264 109.323 157.543 109.296 157.819C108.232 158.358 106.892 158.627 105.276 158.627C104.133 158.627 103.111 158.466 102.211 158.144C101.311 157.822 100.549 157.369 99.9248 156.784C99.3006 156.2 98.8243 155.507 98.4959 154.705C98.1674 153.904 98.0031 153.036 98.0031 152.104C98.0031 150.737 98.2166 149.577 98.6437 148.625C99.0707 147.672 99.6423 146.897 100.358 146.299C101.074 145.701 101.906 145.264 102.852 144.989C103.798 144.713 104.79 144.575 105.828 144.575C106.169 144.575 106.531 144.601 106.912 144.653C107.293 144.706 107.661 144.775 108.015 144.86C108.37 144.946 108.708 145.048 109.03 145.166C109.352 145.284 109.625 145.409 109.848 145.54C109.717 145.869 109.615 146.201 109.543 146.536C109.471 146.871 109.421 147.209 109.395 147.551L109.119 147.551C108.62 146.92 108.107 146.47 107.582 146.201C107.056 145.931 106.439 145.797 105.729 145.797C105.204 145.797 104.675 145.915 104.143 146.151C103.61 146.388 103.127 146.749 102.694 147.235C102.26 147.722 101.909 148.342 101.639 149.098C101.37 149.853 101.235 150.757 101.235 151.808C101.235 152.82 101.373 153.684 101.649 154.4C101.925 155.116 102.283 155.7 102.723 156.154C103.164 156.607 103.663 156.939 104.221 157.149C104.78 157.359 105.341 157.464 105.906 157.464C106.222 157.464 106.544 157.428 106.872 157.356C107.201 157.284 107.523 157.185 107.838 157.06C108.153 156.936 108.452 156.781 108.735 156.597C109.017 156.413 109.264 156.21 109.474 155.986L109.73 156.144Z" fill="#66b2b2" fill-rule="nonzero" opacity="1" stroke="none"/>
<path d="M115.465 148.536C115.124 149.325 114.802 150.103 114.5 150.872C114.197 151.64 113.902 152.425 113.613 153.227L117.22 153.227C116.93 152.425 116.645 151.64 116.362 150.872C116.08 150.103 115.781 149.325 115.465 148.536ZM122.442 158.371C122.127 158.345 121.828 158.332 121.546 158.332C121.263 158.332 120.984 158.332 120.708 158.332C120.432 158.332 120.153 158.332 119.87 158.332C119.588 158.332 119.309 158.345 119.033 158.371C118.823 157.727 118.606 157.07 118.382 156.4C118.159 155.73 117.922 155.06 117.673 154.39C117.252 154.377 116.832 154.367 116.411 154.36C115.991 154.354 115.571 154.35 115.15 154.35C114.808 154.35 114.467 154.354 114.125 154.36C113.784 154.367 113.442 154.377 113.1 154.39C112.838 155.06 112.594 155.73 112.371 156.4C112.148 157.07 111.944 157.727 111.76 158.371C111.602 158.345 111.448 158.332 111.297 158.332C111.146 158.332 110.991 158.332 110.834 158.332C110.676 158.332 110.518 158.332 110.361 158.332C110.203 158.332 110.032 158.345 109.848 158.371C110.006 158.029 110.216 157.556 110.479 156.952C110.742 156.348 111.031 155.664 111.346 154.902C111.662 154.14 112 153.322 112.361 152.448C112.723 151.575 113.084 150.691 113.445 149.798C113.807 148.904 114.161 148.024 114.51 147.157C114.858 146.289 115.176 145.481 115.465 144.732C115.597 144.759 115.722 144.782 115.84 144.801C115.958 144.821 116.083 144.831 116.214 144.831C116.346 144.831 116.471 144.821 116.589 144.801C116.707 144.782 116.832 144.759 116.963 144.732C117.384 145.849 117.834 147.045 118.313 148.319C118.793 149.594 119.276 150.845 119.762 152.074C120.248 153.302 120.721 154.469 121.181 155.572C121.641 156.676 122.061 157.609 122.442 158.371Z" fill="#66b2b2" fill-rule="nonzero" opacity="1" stroke="none"/>
<path d="M124.472 150.29C124.472 149.2 124.459 148.231 124.433 147.383C124.407 146.536 124.367 145.685 124.315 144.831C124.538 144.857 124.781 144.88 125.044 144.9C125.307 144.92 125.602 144.929 125.931 144.929C126.259 144.929 126.555 144.92 126.818 144.9C127.081 144.88 127.324 144.857 127.547 144.831C127.495 145.685 127.455 146.536 127.429 147.383C127.403 148.231 127.389 149.2 127.389 150.29L127.389 152.971C127.389 153.72 127.393 154.442 127.399 155.139C127.406 155.835 127.416 156.44 127.429 156.952C128.178 156.952 128.927 156.932 129.676 156.893C130.425 156.853 131.18 156.788 131.942 156.696C131.916 156.84 131.896 156.972 131.883 157.09C131.87 157.208 131.863 157.372 131.863 157.583C131.863 157.793 131.87 157.957 131.883 158.075C131.896 158.194 131.916 158.292 131.942 158.371C131.587 158.358 131.151 158.348 130.632 158.341C130.113 158.335 129.4 158.332 128.493 158.332C127.692 158.332 127.041 158.332 126.542 158.332C126.056 158.332 125.665 158.332 125.369 158.332C125.074 158.332 124.85 158.335 124.699 158.341C124.548 158.348 124.42 158.358 124.315 158.371C124.367 157.556 124.407 156.725 124.433 155.878C124.459 155.03 124.472 154.061 124.472 152.971L124.472 150.29Z" fill="#66b2b2" fill-rule="nonzero" opacity="1" stroke="none"/>
</g>
</g>
</g>
</svg>
