<svg width="110" height="40" viewBox="0 0 110 40" fill="none" xmlns="http://www.w3.org/2000/svg">
<path d="M5.23841 14.959V16.711C5.23841 17.276 5.24321 17.791 5.25291 18.259C5.26271 18.726 5.26751 19.027 5.26751 19.164C5.55951 19.183 5.90991 19.203 6.31871 19.222C6.72751 19.242 7.23361 19.251 7.83701 19.251C10.0367 19.251 11.7789 18.502 13.0636 17.003C14.3483 15.504 14.9907 13.236 14.9907 10.2C14.9907 8.99298 14.8301 7.91298 14.5089 6.95898C14.1877 6.00498 13.7352 5.19199 13.1512 4.52099C12.5672 3.84899 11.8664 3.33298 11.0489 2.97298C10.2313 2.61298 9.31641 2.43298 8.30421 2.43298C7.60341 2.43298 7.03411 2.44798 6.59611 2.47698C6.15811 2.50598 5.71531 2.53999 5.26751 2.57899C5.26751 2.71499 5.26271 3.01699 5.25291 3.48399C5.24321 3.95099 5.23841 4.47698 5.23841 5.06098V6.81299V8.27299V13.47V14.959ZM0.916912 8.85699C0.916912 7.24099 0.897513 5.80499 0.858513 4.54999C0.819613 3.29399 0.761211 2.03398 0.683411 0.768982C1.01431 0.807982 1.37441 0.841987 1.76371 0.870987C2.15301 0.899987 2.59101 0.914986 3.07761 0.914986C3.72001 0.914986 4.44031 0.889988 5.23841 0.841988C6.03641 0.792988 7.07791 0.768982 8.36261 0.768982C10.0367 0.768982 11.5599 0.918985 12.9322 1.22099C14.3045 1.52299 15.4871 2.03398 16.4798 2.75398C17.4726 3.47398 18.2415 4.44298 18.7865 5.65898C19.3316 6.87598 19.6041 8.40898 19.6041 10.258C19.6041 11.874 19.3364 13.334 18.8011 14.638C18.2658 15.942 17.5359 17.057 16.6112 17.981C15.6866 18.906 14.616 19.611 13.3994 20.098C12.1828 20.585 10.8834 20.828 9.50141 20.828C8.04141 20.828 6.79561 20.818 5.76391 20.799C4.73221 20.779 3.83681 20.77 3.07761 20.77C2.59101 20.77 2.15301 20.77 1.76371 20.77C1.37441 20.77 1.01431 20.789 0.683411 20.828C0.761211 19.621 0.819613 18.39 0.858513 17.134C0.897513 15.879 0.916912 14.443 0.916912 12.828V8.85699Z" fill="black"/>
<path d="M23.7503 8.85699C23.7503 7.24099 23.7308 5.80499 23.6919 4.54999C23.653 3.29399 23.5946 2.03398 23.5167 0.768982C23.8476 0.807982 24.2078 0.841987 24.5971 0.870987C24.9864 0.899987 25.4244 0.914986 25.911 0.914986C26.3977 0.914986 26.8356 0.899987 27.225 0.870987C27.6143 0.841987 27.9744 0.807982 28.3053 0.768982C28.2274 2.03398 28.169 3.29399 28.1301 4.54999C28.0912 5.80499 28.0717 7.24099 28.0717 8.85699V12.828C28.0717 14.443 28.0912 15.879 28.1301 17.134C28.169 18.39 28.2274 19.621 28.3053 20.828C27.9744 20.789 27.6143 20.77 27.225 20.77C26.8356 20.77 26.3977 20.77 25.911 20.77C25.4244 20.77 24.9864 20.77 24.5971 20.77C24.2078 20.77 23.8476 20.789 23.5167 20.828C23.5946 19.621 23.653 18.39 23.6919 17.134C23.7308 15.879 23.7503 14.443 23.7503 12.828V8.85699Z" fill="black"/>
<path d="M41.7951 6.37498C41.7951 5.63498 41.7124 5.01198 41.5469 4.50598C41.3814 3.99998 41.1576 3.59598 40.8753 3.29398C40.5931 2.99298 40.2622 2.77399 39.8826 2.63699C39.503 2.50099 39.1088 2.43298 38.7 2.43298H38.0285C37.9311 2.43298 37.8338 2.43298 37.7365 2.43298C37.6391 2.43298 37.5515 2.44298 37.4737 2.46198C37.4542 3.86398 37.4396 5.24099 37.4299 6.59399C37.4202 7.94699 37.4153 9.30399 37.4153 10.667C37.9019 10.667 38.4032 10.618 38.919 10.521C39.4349 10.424 39.9069 10.224 40.3352 9.92198C40.7634 9.62098 41.1138 9.18799 41.3863 8.62299C41.6588 8.05899 41.7951 7.30898 41.7951 6.37498ZM33.0939 8.85699C33.0939 7.24099 33.0744 5.80499 33.0355 4.54999C32.9966 3.29399 32.9382 2.03398 32.8603 0.768982C33.1912 0.807982 33.5513 0.841987 33.9406 0.870987C34.33 0.899987 34.7679 0.914986 35.2546 0.914986C35.9359 0.914986 36.6415 0.889988 37.3715 0.841988C38.1015 0.792988 38.8168 0.768982 39.5176 0.768982C40.8997 0.768982 41.98 0.870982 42.7586 1.07498C43.5373 1.27998 44.1504 1.57599 44.5982 1.96599C45.2211 2.47199 45.6785 3.03598 45.9705 3.65898C46.2625 4.28198 46.4085 5.03198 46.4085 5.90798C46.4085 7.01698 46.2236 7.97098 45.8537 8.76898C45.4839 9.56698 44.9631 10.214 44.2916 10.711C43.62 11.207 42.8268 11.572 41.9119 11.806C40.997 12.039 39.9945 12.156 38.9044 12.156H37.4153C37.4153 13.616 37.4299 15.071 37.4591 16.521C37.4883 17.971 37.5515 19.407 37.6489 20.828C37.318 20.789 36.9578 20.77 36.5685 20.77C36.1792 20.77 35.7412 20.77 35.2546 20.77C34.7679 20.77 34.33 20.77 33.9406 20.77C33.5513 20.77 33.1912 20.789 32.8603 20.828C32.9382 19.621 32.9966 18.39 33.0355 17.134C33.0744 15.879 33.0939 14.443 33.0939 12.828V8.85699Z" fill="black"/>
<path d="M62.7889 11.163C62.0492 11.144 61.3095 11.12 60.5698 11.09C59.8301 11.061 59.0904 11.047 58.3507 11.047C57.611 11.047 56.8713 11.056 56.1316 11.076C55.3919 11.095 54.6522 11.124 53.9125 11.163V12.828C53.9125 14.443 53.932 15.879 53.9709 17.134C54.0099 18.39 54.0683 19.621 54.1461 20.828C53.8152 20.789 53.4551 20.77 53.0658 20.77C52.6765 20.77 52.2385 20.77 51.7518 20.77C51.2652 20.77 50.8272 20.77 50.4379 20.77C50.0486 20.77 49.6885 20.789 49.3575 20.828C49.4354 19.621 49.4938 18.39 49.5327 17.134C49.5717 15.879 49.5911 14.443 49.5911 12.828V8.85699C49.5911 7.24099 49.5717 5.80499 49.5327 4.54999C49.4938 3.29399 49.4354 2.03398 49.3575 0.768982C49.6885 0.807982 50.0486 0.841987 50.4379 0.870987C50.8272 0.899987 51.2652 0.914986 51.7518 0.914986C52.2385 0.914986 52.6765 0.899987 53.0658 0.870987C53.4551 0.841987 53.8152 0.807982 54.1461 0.768982C54.0488 2.03398 53.9855 3.28499 53.9563 4.52099C53.9271 5.75699 53.9125 7.18298 53.9125 8.79798C54.4187 8.81798 55.027 8.83199 55.7375 8.84199C56.448 8.85199 57.3288 8.85699 58.3799 8.85699C59.4311 8.85699 60.2876 8.85199 60.9494 8.84199C61.6113 8.83199 62.2244 8.81798 62.7889 8.79798C62.7889 7.18298 62.7695 5.75699 62.7305 4.52099C62.6916 3.28499 62.6332 2.03398 62.5553 0.768982C62.8863 0.807982 63.2464 0.841987 63.6357 0.870987C64.025 0.899987 64.463 0.914986 64.95 0.914986C65.436 0.914986 65.874 0.899987 66.264 0.870987C66.653 0.841987 67.013 0.807982 67.344 0.768982C67.266 2.03398 67.208 3.29399 67.169 4.54999C67.13 5.80499 67.11 7.24099 67.11 8.85699V12.828C67.11 14.443 67.13 15.879 67.169 17.134C67.208 18.39 67.266 19.621 67.344 20.828C67.013 20.789 66.653 20.77 66.264 20.77C65.874 20.77 65.436 20.77 64.95 20.77C64.463 20.77 64.025 20.77 63.6357 20.77C63.2464 20.77 62.8863 20.789 62.5553 20.828C62.6332 19.621 62.6916 18.39 62.7305 17.134C62.7695 15.879 62.7889 14.443 62.7889 12.828V11.163Z" fill="black"/>
<path d="M76.629 14.959V16.711C76.629 17.276 76.634 17.791 76.644 18.259C76.653 18.726 76.658 19.027 76.658 19.164C76.95 19.183 77.301 19.203 77.709 19.222C78.118 19.242 78.624 19.251 79.228 19.251C81.427 19.251 83.17 18.502 84.454 17.003C85.739 15.504 86.381 13.236 86.381 10.2C86.381 8.99298 86.221 7.91298 85.9 6.95898C85.579 6.00498 85.126 5.19199 84.542 4.52099C83.958 3.84899 83.257 3.33298 82.44 2.97298C81.622 2.61298 80.707 2.43298 79.695 2.43298C78.994 2.43298 78.425 2.44798 77.987 2.47698C77.549 2.50598 77.106 2.53999 76.658 2.57899C76.658 2.71499 76.653 3.01699 76.644 3.48399C76.634 3.95099 76.629 4.47698 76.629 5.06098V6.81299V8.27299V13.47V14.959ZM72.308 8.85699C72.308 7.24099 72.288 5.80499 72.249 4.54999C72.21 3.29399 72.152 2.03398 72.074 0.768982C72.405 0.807982 72.765 0.841987 73.154 0.870987C73.544 0.899987 73.982 0.914986 74.468 0.914986C75.111 0.914986 75.831 0.889988 76.629 0.841988C77.427 0.792988 78.469 0.768982 79.753 0.768982C81.427 0.768982 82.951 0.918985 84.323 1.22099C85.695 1.52299 86.878 2.03398 87.871 2.75398C88.863 3.47398 89.632 4.44298 90.177 5.65898C90.722 6.87598 90.995 8.40898 90.995 10.258C90.995 11.874 90.727 13.334 90.192 14.638C89.657 15.942 88.927 17.057 88.002 17.981C87.077 18.906 86.007 19.611 84.79 20.098C83.574 20.585 82.274 20.828 80.892 20.828C79.432 20.828 78.186 20.818 77.155 20.799C76.123 20.779 75.228 20.77 74.468 20.77C73.982 20.77 73.544 20.77 73.154 20.77C72.765 20.77 72.405 20.789 72.074 20.828C72.152 19.621 72.21 18.39 72.249 17.134C72.288 15.879 72.308 14.443 72.308 12.828V8.85699Z" fill="black"/>
<path d="M99.55 6.25799C99.044 7.42599 98.567 8.57899 98.119 9.71799C97.672 10.857 97.234 12.02 96.805 13.207H102.149C101.721 12.02 101.297 10.857 100.879 9.71799C100.46 8.57899 100.017 7.42599 99.55 6.25799ZM109.886 20.828C109.419 20.789 108.976 20.77 108.558 20.77C108.139 20.77 107.726 20.77 107.317 20.77C106.908 20.77 106.494 20.77 106.076 20.77C105.657 20.77 105.244 20.789 104.835 20.828C104.524 19.874 104.202 18.901 103.871 17.908C103.541 16.915 103.19 15.923 102.82 14.93C102.197 14.91 101.575 14.896 100.952 14.886C100.329 14.876 99.706 14.872 99.083 14.872C98.577 14.872 98.071 14.876 97.565 14.886C97.058 14.896 96.552 14.91 96.046 14.93C95.657 15.923 95.297 16.915 94.966 17.908C94.635 18.901 94.333 19.874 94.061 20.828C93.827 20.789 93.598 20.77 93.375 20.77C93.151 20.77 92.922 20.77 92.688 20.77C92.455 20.77 92.221 20.77 91.988 20.77C91.754 20.77 91.501 20.789 91.228 20.828C91.462 20.322 91.773 19.621 92.163 18.726C92.552 17.83 92.98 16.818 93.448 15.689C93.915 14.56 94.416 13.348 94.951 12.054C95.487 10.759 96.022 9.44998 96.557 8.12698C97.093 6.80298 97.618 5.49898 98.134 4.21398C98.65 2.92898 99.122 1.73199 99.55 0.622986C99.745 0.661986 99.93 0.695983 100.105 0.724983C100.28 0.753983 100.465 0.768982 100.66 0.768982C100.854 0.768982 101.039 0.753983 101.214 0.724983C101.39 0.695983 101.575 0.661986 101.769 0.622986C102.392 2.27699 103.059 4.04898 103.769 5.93698C104.48 7.82498 105.195 9.67898 105.915 11.499C106.636 13.319 107.336 15.047 108.018 16.682C108.699 18.317 109.322 19.699 109.886 20.828Z" fill="black"/>
<path d="M15.3714 30.482C15.1612 31.993 15.0035 33.485 14.8984 34.956C14.7933 36.428 14.6881 37.899 14.583 39.371C14.4253 39.345 14.2677 39.332 14.11 39.332C13.9523 39.332 13.8012 39.332 13.6567 39.332C13.499 39.332 13.3446 39.332 13.1935 39.332C13.0424 39.332 12.888 39.345 12.7304 39.371C13.1508 37.111 13.5253 34.864 13.8538 32.63C14.1823 30.397 14.4845 28.13 14.7604 25.831C14.9049 25.857 15.0396 25.88 15.1644 25.9C15.2893 25.92 15.4239 25.929 15.5685 25.929C15.6867 25.929 15.8116 25.92 15.9429 25.9C16.0743 25.88 16.2123 25.857 16.3568 25.831C16.7116 26.619 17.0828 27.421 17.4704 28.235C17.858 29.05 18.2456 29.861 18.6332 30.669C19.0209 31.478 19.4085 32.269 19.7961 33.044C20.1837 33.82 20.5549 34.555 20.9096 35.252C21.698 33.78 22.4831 32.24 23.2649 30.63C24.0467 29.02 24.7923 27.421 25.5019 25.831C25.8303 25.897 26.1128 25.929 26.3494 25.929C26.5727 25.929 26.8487 25.897 27.1771 25.831C27.3085 26.961 27.4498 28.176 27.6009 29.477C27.752 30.778 27.8998 32.049 28.0443 33.291C28.1889 34.532 28.3334 35.692 28.4779 36.769C28.6225 37.847 28.7539 38.714 28.8721 39.371C28.6093 39.345 28.3433 39.332 28.0739 39.332C27.8045 39.332 27.5385 39.332 27.2757 39.332C27.0129 39.332 26.7435 39.332 26.4676 39.332C26.1917 39.332 25.9158 39.345 25.6398 39.371C25.5741 38.018 25.4657 36.553 25.3146 34.976C25.1635 33.399 25.0091 31.836 24.8515 30.285H24.812C24.0631 31.836 23.3273 33.36 22.6046 34.858C21.882 36.356 21.1659 37.86 20.4563 39.371C20.3906 39.358 20.3282 39.348 20.2691 39.341C20.21 39.335 20.1476 39.332 20.0819 39.332C20.0162 39.332 19.9538 39.335 19.8946 39.341C19.8355 39.348 19.7731 39.358 19.7074 39.371C18.9979 37.899 18.2916 36.428 17.5887 34.956C16.8857 33.485 16.1597 31.993 15.4108 30.482H15.3714Z" fill="#66B2B2"/>
<path d="M31.1387 31.29C31.1387 30.2 31.1255 29.231 31.0993 28.383C31.073 27.536 31.0336 26.685 30.981 25.831C31.5723 25.844 32.157 25.864 32.7351 25.89C33.3132 25.916 33.8979 25.929 34.4892 25.929C35.4615 25.929 36.3254 25.92 37.081 25.9C37.8365 25.88 38.3456 25.857 38.6084 25.831C38.5559 26.041 38.5296 26.317 38.5296 26.659C38.5296 26.869 38.5362 27.033 38.5493 27.151C38.5624 27.27 38.5821 27.401 38.6084 27.546C38.2274 27.519 37.8102 27.493 37.3569 27.467C36.9036 27.44 36.4634 27.414 36.0364 27.388C35.6094 27.362 35.225 27.342 34.8834 27.329C34.5418 27.316 34.2987 27.309 34.1542 27.309C34.1016 28.032 34.072 28.748 34.0655 29.457C34.0589 30.167 34.0556 30.883 34.0556 31.606C34.9097 31.592 35.6816 31.573 36.3714 31.546C37.0613 31.52 37.7806 31.487 38.5296 31.448C38.4902 31.671 38.4639 31.842 38.4507 31.96C38.4376 32.079 38.431 32.203 38.431 32.335C38.431 32.44 38.4409 32.548 38.4606 32.66C38.4803 32.772 38.5033 32.933 38.5296 33.143C37.0317 33.025 35.5404 32.966 34.0556 32.966C34.0556 33.386 34.0523 33.806 34.0458 34.227C34.0392 34.647 34.0359 35.068 34.0359 35.488C34.0359 36.342 34.0556 37.164 34.095 37.952C34.844 37.952 35.5929 37.932 36.3419 37.893C37.0908 37.853 37.8463 37.788 38.6084 37.696C38.5821 37.84 38.5624 37.972 38.5493 38.09C38.5362 38.208 38.5296 38.372 38.5296 38.583C38.5296 38.793 38.5362 38.957 38.5493 39.075C38.5624 39.194 38.5821 39.292 38.6084 39.371C38.2537 39.358 37.8168 39.348 37.2978 39.341C36.7788 39.335 36.0659 39.332 35.1593 39.332C34.3578 39.332 33.7074 39.332 33.2081 39.332C32.722 39.332 32.3311 39.332 32.0354 39.332C31.7398 39.332 31.5164 39.335 31.3653 39.341C31.2142 39.348 31.0861 39.358 30.981 39.371C31.0336 38.556 31.073 37.725 31.0993 36.878C31.1255 36.03 31.1387 35.061 31.1387 33.971V31.29Z" fill="#66B2B2"/>
<path d="M44.0876 35.409V36.592C44.0876 36.973 44.0908 37.321 44.0974 37.637C44.104 37.952 44.1073 38.156 44.1073 38.248C44.3044 38.261 44.5409 38.274 44.8168 38.287C45.0927 38.3 45.4343 38.307 45.8417 38.307C47.3264 38.307 48.5024 37.801 49.3696 36.789C50.2368 35.777 50.6704 34.247 50.6704 32.197C50.6704 31.382 50.562 30.653 50.3452 30.009C50.1284 29.365 49.8229 28.817 49.4287 28.363C49.0345 27.91 48.5615 27.562 48.0097 27.319C47.4578 27.076 46.8403 26.954 46.157 26.954C45.684 26.954 45.2997 26.964 45.004 26.984C44.7084 27.004 44.4095 27.027 44.1073 27.053C44.1073 27.145 44.104 27.348 44.0974 27.664C44.0908 27.979 44.0876 28.334 44.0876 28.728V29.911V30.896V34.404V35.409ZM41.1706 31.29C41.1706 30.2 41.1575 29.231 41.1312 28.383C41.1049 27.536 41.0655 26.685 41.0129 25.831C41.2363 25.857 41.4794 25.88 41.7422 25.9C42.005 25.92 42.3006 25.929 42.6291 25.929C43.0627 25.929 43.5488 25.913 44.0876 25.88C44.6263 25.847 45.3292 25.831 46.1964 25.831C47.3264 25.831 48.3546 25.933 49.2809 26.136C50.2072 26.34 51.0054 26.685 51.6756 27.171C52.3457 27.657 52.8647 28.311 53.2326 29.132C53.6005 29.953 53.7844 30.988 53.7844 32.236C53.7844 33.327 53.6038 34.312 53.2424 35.193C52.8811 36.073 52.3884 36.825 51.7642 37.449C51.1401 38.073 50.4175 38.55 49.5962 38.878C48.775 39.207 47.898 39.371 46.9651 39.371C45.9796 39.371 45.1387 39.364 44.4423 39.351C43.7459 39.338 43.1415 39.332 42.6291 39.332C42.3006 39.332 42.005 39.332 41.7422 39.332C41.4794 39.332 41.2363 39.345 41.0129 39.371C41.0655 38.556 41.1049 37.725 41.1312 36.878C41.1575 36.03 41.1706 35.061 41.1706 33.971V31.29Z" fill="#66B2B2"/>
<path d="M56.5831 31.29C56.5831 30.2 56.57 29.231 56.5437 28.383C56.5174 27.536 56.478 26.685 56.4255 25.831C56.6488 25.857 56.8919 25.88 57.1547 25.9C57.4175 25.92 57.7131 25.929 58.0416 25.929C58.3701 25.929 58.6657 25.92 58.9285 25.9C59.1913 25.88 59.4344 25.857 59.6577 25.831C59.6052 26.685 59.5658 27.536 59.5395 28.383C59.5132 29.231 59.5001 30.2 59.5001 31.29V33.971C59.5001 35.061 59.5132 36.03 59.5395 36.878C59.5658 37.725 59.6052 38.556 59.6577 39.371C59.4344 39.345 59.1913 39.332 58.9285 39.332C58.6657 39.332 58.3701 39.332 58.0416 39.332C57.7131 39.332 57.4175 39.332 57.1547 39.332C56.8919 39.332 56.6488 39.345 56.4255 39.371C56.478 38.556 56.5174 37.725 56.5437 36.878C56.57 36.03 56.5831 35.061 56.5831 33.971V31.29Z" fill="#66B2B2"/>
<path d="M73.73 37.144C73.625 37.42 73.533 37.699 73.454 37.982C73.375 38.264 73.323 38.543 73.296 38.819C72.232 39.358 70.892 39.627 69.276 39.627C68.133 39.627 67.111 39.466 66.211 39.144C65.311 38.822 64.549 38.369 63.9248 37.784C63.3006 37.2 62.8243 36.507 62.4959 35.705C62.1674 34.904 62.0031 34.036 62.0031 33.104C62.0031 31.737 62.2166 30.577 62.6437 29.625C63.0707 28.672 63.6423 27.897 64.358 27.299C65.074 26.701 65.906 26.264 66.852 25.989C67.798 25.713 68.79 25.575 69.828 25.575C70.169 25.575 70.531 25.601 70.912 25.653C71.293 25.706 71.661 25.775 72.015 25.86C72.37 25.946 72.708 26.048 73.03 26.166C73.352 26.284 73.625 26.409 73.848 26.54C73.717 26.869 73.615 27.201 73.543 27.536C73.471 27.871 73.421 28.209 73.395 28.551H73.119C72.62 27.92 72.107 27.47 71.582 27.201C71.056 26.931 70.439 26.797 69.729 26.797C69.204 26.797 68.675 26.915 68.143 27.151C67.61 27.388 67.127 27.749 66.694 28.235C66.26 28.722 65.909 29.342 65.639 30.098C65.37 30.853 65.235 31.757 65.235 32.808C65.235 33.82 65.373 34.684 65.649 35.4C65.925 36.116 66.283 36.7 66.723 37.154C67.164 37.607 67.663 37.939 68.221 38.149C68.78 38.359 69.341 38.464 69.906 38.464C70.222 38.464 70.544 38.428 70.872 38.356C71.201 38.284 71.523 38.185 71.838 38.06C72.153 37.936 72.452 37.781 72.735 37.597C73.017 37.413 73.264 37.21 73.474 36.986L73.73 37.144Z" fill="#66B2B2"/>
<path d="M79.465 29.536C79.124 30.325 78.802 31.103 78.5 31.872C78.197 32.64 77.902 33.425 77.613 34.227H81.22C80.93 33.425 80.645 32.64 80.362 31.872C80.08 31.103 79.781 30.325 79.465 29.536ZM86.442 39.371C86.127 39.345 85.828 39.332 85.546 39.332C85.263 39.332 84.984 39.332 84.708 39.332C84.432 39.332 84.153 39.332 83.87 39.332C83.588 39.332 83.309 39.345 83.033 39.371C82.823 38.727 82.606 38.07 82.382 37.4C82.159 36.73 81.922 36.06 81.673 35.39C81.252 35.377 80.832 35.367 80.411 35.36C79.991 35.354 79.571 35.35 79.15 35.35C78.808 35.35 78.467 35.354 78.125 35.36C77.784 35.367 77.442 35.377 77.1 35.39C76.838 36.06 76.594 36.73 76.371 37.4C76.148 38.07 75.944 38.727 75.76 39.371C75.602 39.345 75.448 39.332 75.297 39.332C75.146 39.332 74.991 39.332 74.834 39.332C74.676 39.332 74.518 39.332 74.361 39.332C74.203 39.332 74.032 39.345 73.848 39.371C74.006 39.029 74.216 38.556 74.479 37.952C74.742 37.348 75.031 36.664 75.346 35.902C75.662 35.14 76 34.322 76.361 33.448C76.723 32.575 77.084 31.691 77.445 30.798C77.807 29.904 78.161 29.024 78.51 28.157C78.858 27.289 79.176 26.481 79.465 25.732C79.597 25.759 79.722 25.782 79.84 25.801C79.958 25.821 80.083 25.831 80.214 25.831C80.346 25.831 80.471 25.821 80.589 25.801C80.707 25.782 80.832 25.759 80.963 25.732C81.384 26.849 81.834 28.045 82.313 29.319C82.793 30.594 83.276 31.845 83.762 33.074C84.248 34.302 84.721 35.469 85.181 36.572C85.641 37.676 86.061 38.609 86.442 39.371Z" fill="#66B2B2"/>
<path d="M88.472 31.29C88.472 30.2 88.459 29.231 88.433 28.383C88.407 27.536 88.367 26.685 88.315 25.831C88.538 25.857 88.781 25.88 89.044 25.9C89.307 25.92 89.602 25.929 89.931 25.929C90.259 25.929 90.555 25.92 90.818 25.9C91.081 25.88 91.324 25.857 91.547 25.831C91.495 26.685 91.455 27.536 91.429 28.383C91.403 29.231 91.389 30.2 91.389 31.29V33.971C91.389 34.72 91.393 35.442 91.399 36.139C91.406 36.835 91.416 37.44 91.429 37.952C92.178 37.952 92.927 37.932 93.676 37.893C94.425 37.853 95.18 37.788 95.942 37.696C95.916 37.84 95.896 37.972 95.883 38.09C95.87 38.208 95.863 38.372 95.863 38.583C95.863 38.793 95.87 38.957 95.883 39.075C95.896 39.194 95.916 39.292 95.942 39.371C95.587 39.358 95.151 39.348 94.632 39.341C94.113 39.335 93.4 39.332 92.493 39.332C91.692 39.332 91.041 39.332 90.542 39.332C90.056 39.332 89.665 39.332 89.369 39.332C89.074 39.332 88.85 39.335 88.699 39.341C88.548 39.348 88.42 39.358 88.315 39.371C88.367 38.556 88.407 37.725 88.433 36.878C88.459 36.03 88.472 35.061 88.472 33.971V31.29Z" fill="#66B2B2"/>
</svg>
