<svg width="48" height="48" viewBox="0 0 48 48" fill="none" xmlns="http://www.w3.org/2000/svg">
<path d="M7.66578 8H16.6458L19.5398 15.236L14.8898 18.336C14.6159 18.5187 14.3914 18.7662 14.2362 19.0564C14.0809 19.3467 13.9997 19.6708 13.9998 20C14.0058 20.188 13.9998 20.002 13.9998 20.002V20.044C14.001 20.1334 14.005 20.2228 14.0118 20.312C14.0238 20.476 14.0438 20.698 14.0818 20.972C14.1598 21.512 14.3098 22.256 14.6018 23.132C15.1898 24.892 16.3418 27.17 18.5858 29.414C20.8298 31.658 23.1078 32.81 24.8658 33.398C25.7438 33.69 26.4858 33.838 27.0298 33.918C27.3368 33.9609 27.6459 33.9876 27.9558 33.998L27.9818 34H27.9978C27.9978 34 28.2218 33.988 27.9998 34C28.3711 33.9998 28.735 33.8962 29.0508 33.7009C29.3666 33.5056 29.6218 33.2262 29.7878 32.894L31.1278 30.214L39.9998 31.694V40.334C35.7778 40.944 24.3738 41.546 15.4138 32.586C6.45378 23.626 7.05378 12.22 7.66578 8ZM18.1458 20.972L21.7598 18.564C22.5233 18.0547 23.0884 17.2984 23.3604 16.4219C23.6325 15.5454 23.5948 14.602 23.2538 13.75L20.3598 6.514C20.0628 5.77181 19.5503 5.13563 18.8883 4.68752C18.2263 4.23942 17.4452 3.99995 16.6458 4H7.56178C5.74378 4 4.03378 5.262 3.73578 7.234C3.05578 11.718 2.13378 24.962 12.5858 35.414C23.0378 45.866 36.2818 44.942 40.7658 44.264C42.7378 43.964 43.9998 42.256 43.9998 40.438V31.694C43.9999 30.7471 43.6641 29.8309 43.0522 29.1084C42.4402 28.3858 41.5918 27.9038 40.6578 27.748L31.7858 26.27C30.942 26.1292 30.0752 26.2625 29.3128 26.6506C28.5504 27.0386 27.9325 27.6609 27.5498 28.426L26.8578 29.812C26.6131 29.7517 26.3709 29.6817 26.1318 29.602C24.8918 29.19 23.1698 28.342 21.4138 26.586C19.6578 24.83 18.8098 23.108 18.3978 21.866C18.2994 21.5724 18.216 21.274 18.1478 20.972H18.1458Z" fill="#9F9EC2"/>
</svg>
